<svg width="28" height="28" viewBox="0 0 28 28" fill="none" xmlns="http://www.w3.org/2000/svg">
<path d="M22.4941 21.2559C22.5754 21.3372 22.6399 21.4337 22.6839 21.54C22.7279 21.6462 22.7505 21.76 22.7505 21.875C22.7505 21.99 22.7279 22.1038 22.6839 22.21C22.6399 22.3163 22.5754 22.4128 22.4941 22.4941C22.4128 22.5754 22.3163 22.6398 22.2101 22.6838C22.1039 22.7278 21.99 22.7505 21.8751 22.7505C21.7601 22.7505 21.6462 22.7278 21.54 22.6838C21.4338 22.6398 21.3373 22.5754 21.256 22.4941L14.0001 15.237L6.74412 22.4941C6.57994 22.6582 6.35725 22.7505 6.12506 22.7505C5.89287 22.7505 5.67018 22.6582 5.506 22.4941C5.34181 22.3299 5.24957 22.1072 5.24957 21.875C5.24957 21.6428 5.34181 21.4201 5.506 21.2559L12.763 14L5.506 6.74406C5.34181 6.57987 5.24957 6.35719 5.24957 6.125C5.24957 5.8928 5.34181 5.67012 5.506 5.50594C5.67018 5.34175 5.89287 5.24951 6.12506 5.24951C6.35725 5.24951 6.57994 5.34175 6.74412 5.50594L14.0001 12.763L21.256 5.50594C21.4202 5.34175 21.6429 5.24951 21.8751 5.24951C22.1073 5.24951 22.3299 5.34175 22.4941 5.50594C22.6583 5.67012 22.7505 5.8928 22.7505 6.125C22.7505 6.35719 22.6583 6.57987 22.4941 6.74406L15.2371 14L22.4941 21.2559Z" fill="white"/>
</svg>
