<svg width="215" height="198" viewBox="0 0 215 198" fill="none" xmlns="http://www.w3.org/2000/svg">
<g clip-path="url(#clip0_119_489)">
<path d="M174.771 196.8C174.52 197.014 174.261 197.223 173.999 197.429H142.222C142.039 197.223 141.857 197.014 141.677 196.8C140.21 195.04 138.918 193.141 137.821 191.13C135.212 186.43 134.313 180.269 134.313 173.993C134.313 173.61 134.315 173.227 134.323 172.844C134.352 171.083 134.45 169.32 134.596 167.586C134.622 167.285 134.649 166.986 134.678 166.687C134.913 164.2 135.243 161.779 135.619 159.516C135.666 159.228 135.714 158.942 135.764 158.66C136.529 154.166 137.555 149.72 138.836 145.345C138.836 145.345 138.878 145.356 138.96 145.377C139.195 145.443 139.758 145.599 140.585 145.845C142.864 146.521 147.143 147.885 152.079 149.913C152.348 150.021 152.62 150.135 152.895 150.251C157.07 151.972 161.112 154.002 164.986 156.323C165.226 156.468 165.464 156.616 165.702 156.764V156.785L165.181 173.642L169.834 159.609C170.783 160.33 171.689 161.078 172.554 161.853C172.791 162.064 173.029 162.281 173.259 162.506C175.223 164.305 176.899 166.396 178.229 168.704C185.189 181.252 182.268 190.477 174.771 196.8Z" fill="#F2F2F2"/>
<path d="M170.291 197.429H169.445C169.44 197.22 169.432 197.011 169.419 196.8C169.078 190.459 166.358 183.456 162.655 176.698C162.522 176.452 162.388 176.201 162.245 175.955C160.447 172.74 158.444 169.595 156.374 166.605C156.216 166.373 156.052 166.137 155.888 165.905C153.133 161.974 150.289 158.337 147.72 155.231C147.54 155.009 147.355 154.792 147.173 154.578C143.364 150.011 140.221 146.683 138.96 145.377C138.772 145.184 138.627 145.036 138.527 144.933C138.434 144.832 138.379 144.78 138.368 144.769L138.664 144.473L138.667 144.465L138.968 144.169C138.979 144.182 139.161 144.357 139.483 144.692C139.756 144.97 140.128 145.358 140.586 145.845C142.182 147.537 144.823 150.415 147.879 154.065C148.056 154.277 148.238 154.496 148.42 154.716C150.506 157.235 152.766 160.09 155.005 163.158C155.568 163.93 156.114 164.696 156.644 165.456C156.81 165.688 156.974 165.921 157.133 166.153C159.372 169.383 161.327 172.49 162.998 175.474L163.416 176.222C167.677 183.993 169.971 190.876 170.267 196.8C170.278 197.011 170.286 197.22 170.291 197.429Z" fill="white"/>
<path d="M152.544 149.294C152.393 149.503 152.24 149.709 152.079 149.913C150.866 151.475 149.454 152.871 147.878 154.065C147.648 154.235 147.413 154.409 147.173 154.578C146.517 155.036 145.837 155.46 145.137 155.847C142.254 157.453 139.055 158.413 135.764 158.66C135.658 158.67 135.55 158.678 135.444 158.683C135.397 158.966 135.352 159.249 135.302 159.537C135.407 159.532 135.513 159.527 135.619 159.516C139.105 159.289 142.497 158.289 145.55 156.59C146.297 156.176 147.021 155.722 147.72 155.231C147.958 155.065 148.19 154.89 148.42 154.716C150.106 153.435 151.611 151.934 152.895 150.251C153.049 150.048 153.199 149.841 153.347 149.635C153.072 149.519 152.806 149.405 152.544 149.294Z" fill="white"/>
<path d="M165.274 155.725C165.182 155.926 165.084 156.125 164.986 156.323C163.101 160.079 160.214 163.239 156.644 165.455C156.395 165.611 156.144 165.762 155.888 165.905C155.811 165.95 155.729 165.997 155.653 166.04C152.461 167.811 148.892 168.794 145.244 168.906C141.595 169.019 137.973 168.258 134.678 166.687C134.599 166.65 134.522 166.613 134.445 166.576C134.416 166.878 134.39 167.179 134.369 167.483C134.443 167.517 134.519 167.554 134.596 167.586C137.985 169.149 141.695 169.89 145.425 169.75C149.155 169.611 152.799 168.594 156.062 166.782C156.168 166.724 156.271 166.666 156.374 166.605C156.631 166.457 156.884 166.307 157.133 166.153C160.792 163.872 163.755 160.632 165.702 156.785C165.805 156.587 165.903 156.386 165.998 156.183C165.758 156.029 165.517 155.876 165.274 155.725Z" fill="white"/>
<path d="M172.694 161.253C172.649 161.454 172.604 161.654 172.554 161.853C171.194 167.433 167.782 172.296 162.998 175.474C162.752 175.64 162.499 175.799 162.245 175.955C161.973 176.119 161.7 176.283 161.42 176.436C157.115 178.819 152.158 179.756 147.279 179.11C142.401 178.463 137.859 176.266 134.323 172.844C134.263 172.788 134.205 172.73 134.146 172.672C134.146 173.066 134.144 173.454 134.149 173.845C134.202 173.896 134.257 173.946 134.313 173.993C137.994 177.329 142.627 179.429 147.562 180C152.497 180.571 157.486 179.585 161.832 177.179C162.113 177.025 162.388 176.867 162.654 176.698C162.914 176.544 163.165 176.386 163.416 176.222C168.268 173.012 171.771 168.13 173.259 162.506C173.31 162.315 173.36 162.125 173.405 161.932C173.175 161.699 172.934 161.48 172.694 161.253Z" fill="white"/>
<path d="M150.532 118.209H0V5.27075H150.532V118.209Z" fill="white"/>
<path d="M36.4766 28.8418C39.7858 28.8418 42.4685 26.1591 42.4685 22.8499C42.4685 19.5406 39.7858 16.8579 36.4766 16.8579C33.1673 16.8579 30.4846 19.5406 30.4846 22.8499C30.4846 26.1591 33.1673 28.8418 36.4766 28.8418Z" fill="#E6E6E6"/>
<path d="M50.3152 18.8552C50.0507 18.8557 49.7971 18.9611 49.6102 19.1484C49.4233 19.3356 49.3184 19.5893 49.3184 19.8539C49.3184 20.1184 49.4233 20.3722 49.6102 20.5594C49.7971 20.7466 50.0507 20.8521 50.3152 20.8525H123.229C123.493 20.8521 123.747 20.7466 123.934 20.5594C124.121 20.3722 124.226 20.1184 124.226 19.8539C124.226 19.5893 124.121 19.3356 123.934 19.1484C123.747 18.9611 123.493 18.8557 123.229 18.8552H50.3152Z" fill="#E6E6E6"/>
<path d="M50.3152 24.8472C50.0504 24.8466 49.7961 24.9513 49.6084 25.1382C49.4208 25.3251 49.315 25.5789 49.3145 25.8437C49.3139 26.1086 49.4186 26.3628 49.6055 26.5505C49.7924 26.7382 50.0461 26.8439 50.311 26.8445H96.4077C96.539 26.8447 96.6691 26.8191 96.7904 26.769C96.9118 26.7189 97.0221 26.6454 97.115 26.5526C97.2079 26.4599 97.2817 26.3497 97.332 26.2284C97.3823 26.1071 97.4082 25.9771 97.4082 25.8458C97.4082 25.7145 97.3823 25.5845 97.332 25.4632C97.2817 25.342 97.2079 25.2318 97.115 25.139C97.0221 25.0463 96.9118 24.9728 96.7904 24.9227C96.6691 24.8726 96.539 24.8469 96.4077 24.8472H50.3152Z" fill="#E6E6E6"/>
<path d="M150.532 118.209H0V5.27075H150.532V118.209ZM1.68483 116.524H148.847V6.95559H1.68483V116.524Z" fill="#E6E6E6"/>
<path d="M8.41357 39.7123V106.886H142.118V39.7123H8.41357ZM141.475 56.345H108.853V40.3551H141.475V56.345ZM75.5873 56.345V40.3551H108.21V56.345H75.5873ZM108.21 56.9878V72.9777H75.5873V56.9878H108.21ZM74.9444 56.345H42.3218V40.3551H74.9444V56.345ZM74.9444 56.9878V72.9777H42.3218V56.9878H74.9444ZM41.679 72.9777H9.05638V56.9878H41.679V72.9777ZM41.679 73.6205V89.6104H9.05638V73.6205H41.679ZM42.3218 73.6205H74.9444V89.6104H42.3218V73.6205ZM74.9444 90.2532V106.243H42.3218V90.2532H74.9444ZM75.5873 90.2532H108.21V106.243H75.5873V90.2532ZM75.5873 89.6104V73.6205H108.21V89.6104H75.5873ZM108.853 73.6205H141.475V89.6104H108.853V73.6205ZM108.853 72.9777V56.9878H141.475V72.9777H108.853ZM41.679 40.3551V56.345H9.05638V40.3551H41.679ZM9.05638 90.2532H41.679V106.243H9.05638V90.2532ZM108.853 106.243V90.2532H141.475V106.243H108.853Z" fill="#E4E4E4"/>
<path d="M63.3006 57.784L49.9968 57.4828C48.666 52.3279 49.2651 47.4197 50.3271 42.8967L63.6308 43.1979C62.2852 47.9532 62.1715 52.9727 63.3006 57.784Z" fill="#6C63FF"/>
<path d="M52.6062 46.1203L52.6133 45.6141L59.5058 45.8603L59.4984 46.3665L52.6062 46.1203Z" fill="white"/>
<path d="M52.5775 48.1453L52.5846 47.639L59.4768 47.8856L59.4697 48.3918L52.5775 48.1453Z" fill="white"/>
<path d="M52.5481 50.17L52.5555 49.6638L59.4477 49.9103L59.4406 50.4166L52.5481 50.17Z" fill="white"/>
<path d="M52.5192 52.1949L52.5262 51.6887L59.4188 51.9352L59.4114 52.4414L52.5192 52.1949Z" fill="white"/>
<path d="M52.4902 54.2197L52.4973 53.7135L59.3898 53.96L59.3824 54.4662L52.4902 54.2197Z" fill="white"/>
<path d="M34.3742 95.067L21.0704 94.7658C19.7396 89.6109 20.3387 84.7026 21.4007 80.1797L34.7044 80.4809C33.3588 85.2362 33.2451 90.2557 34.3742 95.067Z" fill="#F0F0F0"/>
<path d="M23.6799 83.4033L23.687 82.8971L30.5795 83.1433L30.5721 83.6495L23.6799 83.4033Z" fill="white"/>
<path d="M23.651 85.4282L23.6581 84.922L30.5503 85.1685L30.5432 85.6747L23.651 85.4282Z" fill="white"/>
<path d="M23.6217 87.4531L23.6291 86.9469L30.5213 87.1934L30.5142 87.6996L23.6217 87.4531Z" fill="white"/>
<path d="M23.5928 89.4779L23.5998 88.9717L30.4924 89.2182L30.485 89.7244L23.5928 89.4779Z" fill="white"/>
<path d="M23.5638 91.5027L23.5709 90.9965L30.4634 91.243L30.4561 91.7492L23.5638 91.5027Z" fill="white"/>
<path d="M103.798 78.0326L90.4937 77.7314C89.163 72.5764 89.7621 67.6682 90.824 63.1453L104.128 63.4465C102.782 68.2018 102.668 73.2212 103.798 78.0326Z" fill="#F0F0F0"/>
<path d="M93.1033 66.3689L93.1103 65.8627L100.003 66.1089L99.9955 66.6151L93.1033 66.3689Z" fill="white"/>
<path d="M93.0743 68.3938L93.0814 67.8876L99.9736 68.1341L99.9666 68.6403L93.0743 68.3938Z" fill="white"/>
<path d="M93.0452 70.4186L93.0526 69.9124L99.9448 70.1589L99.9377 70.6651L93.0452 70.4186Z" fill="white"/>
<path d="M93.0162 72.4435L93.0233 71.9373L99.9158 72.1838L99.9084 72.69L93.0162 72.4435Z" fill="white"/>
<path d="M92.9873 74.4682L92.9944 73.962L99.8869 74.2086L99.8795 74.7148L92.9873 74.4682Z" fill="white"/>
<path d="M98.0123 74.8185L84.7084 74.5173C83.3777 69.3623 83.9768 64.4541 85.0387 59.9312L98.3425 60.2324C96.9968 64.9877 96.8832 70.0071 98.0123 74.8185Z" fill="#6C63FF"/>
<path d="M87.318 63.1549L87.3251 62.6487L94.2176 62.8949L94.2102 63.4011L87.318 63.1549Z" fill="white"/>
<path d="M87.2889 65.1797L87.296 64.6735L94.1882 64.92L94.1812 65.4262L87.2889 65.1797Z" fill="white"/>
<path d="M87.2599 67.2045L87.2673 66.6982L94.1595 66.9448L94.1524 67.451L87.2599 67.2045Z" fill="white"/>
<path d="M87.231 69.2294L87.238 68.7231L94.1306 68.9697L94.1232 69.4759L87.231 69.2294Z" fill="white"/>
<path d="M87.2019 71.2543L87.209 70.748L94.1015 70.9946L94.0941 71.5008L87.2019 71.2543Z" fill="white"/>
<path d="M147.08 104.179L133.776 103.877C132.445 98.7226 133.044 93.8143 134.106 89.2914L147.41 89.5926C146.064 94.3479 145.951 99.3674 147.08 104.179Z" fill="#6C63FF"/>
<path d="M136.386 92.5149L136.393 92.0087L143.285 92.2552L143.278 92.7614L136.386 92.5149Z" fill="white"/>
<path d="M136.357 94.5397L136.364 94.0334L143.256 94.28L143.249 94.7862L136.357 94.5397Z" fill="white"/>
<path d="M136.328 96.5649L136.335 96.0587L143.227 96.3049L143.22 96.8111L136.328 96.5649Z" fill="white"/>
<path d="M136.299 98.5897L136.306 98.0835L143.198 98.3297L143.191 98.8359L136.299 98.5897Z" fill="white"/>
<path d="M136.27 100.615L136.277 100.108L143.169 100.355L143.162 100.861L136.27 100.615Z" fill="white"/>
<path d="M132.724 60.3553L119.42 60.0541C118.089 54.8992 118.689 49.991 119.751 45.468L133.054 45.7692C131.709 50.5245 131.595 55.544 132.724 60.3553Z" fill="#F0F0F0"/>
<path d="M122.03 48.6916L122.037 48.1854L128.929 48.4316L128.922 48.9378L122.03 48.6916Z" fill="white"/>
<path d="M122.001 50.7164L122.008 50.2102L128.9 50.4567L128.893 50.9629L122.001 50.7164Z" fill="white"/>
<path d="M121.972 52.7413L121.979 52.2351L128.871 52.4816L128.864 52.9878L121.972 52.7413Z" fill="white"/>
<path d="M121.943 54.7661L121.95 54.2599L128.842 54.5064L128.835 55.0126L121.943 54.7661Z" fill="white"/>
<path d="M121.914 56.791L121.921 56.2848L128.813 56.5313L128.806 57.0375L121.914 56.791Z" fill="white"/>
<path d="M146.363 93.4293C146.821 93.3163 147.25 93.1041 147.618 92.8077C147.986 92.5112 148.284 92.1377 148.492 91.7134C148.7 91.2891 148.812 90.8244 148.821 90.352C148.83 89.8796 148.736 89.411 148.544 88.9792L156.932 81.1339L151.129 79.7393L144.053 87.4031C143.349 87.7733 142.805 88.389 142.525 89.1334C142.244 89.8779 142.246 90.6993 142.531 91.4421C142.816 92.1849 143.363 92.7975 144.069 93.1637C144.776 93.53 145.592 93.6245 146.363 93.4293Z" fill="#FFB6B6"/>
<path d="M150.696 87.1098L146.784 81.5941L161.478 66.3959L164.89 42.4398C165.059 41.2557 165.486 40.1232 166.142 39.1228C166.797 38.1224 167.665 37.2785 168.683 36.6512C169.702 36.0238 170.846 35.6284 172.034 35.4929C173.222 35.3574 174.426 35.4852 175.559 35.8672C177.606 36.5594 179.294 38.0352 180.254 39.9707C181.214 41.9063 181.366 44.1434 180.678 46.1914L171.973 72.0189L150.696 87.1098Z" fill="#E4E4E4"/>
<path d="M178.286 189.184L173.943 189.184L171.877 172.433L178.287 172.434L178.286 189.184Z" fill="#FFB6B6"/>
<path d="M180.622 197.43H177.541L176.991 194.521L175.582 197.43H167.409C167.017 197.43 166.636 197.305 166.32 197.073C166.004 196.841 165.771 196.514 165.655 196.14C165.538 195.766 165.544 195.364 165.672 194.994C165.8 194.624 166.042 194.304 166.365 194.081L172.892 189.574V186.632L179.757 187.042L180.622 197.43Z" fill="#2F2E41"/>
<path d="M205.079 184.765L201.264 186.841L191.443 173.115L197.073 170.052L205.079 184.765Z" fill="#FFB6B6"/>
<path d="M211.072 190.892L208.365 192.364L206.491 190.072L206.644 193.301L199.465 197.207C199.121 197.394 198.726 197.467 198.338 197.414C197.95 197.361 197.589 197.185 197.308 196.912C197.027 196.639 196.84 196.284 196.775 195.897C196.711 195.511 196.771 195.114 196.948 194.764L200.526 187.685L199.12 185.102L205.346 182.181L211.072 190.892Z" fill="#2F2E41"/>
<path d="M180.116 183.22H171.141V151.261L165.585 130.425C161.597 115.525 160.537 99.9928 162.464 84.689L162.472 84.6264L162.52 84.5859C162.663 84.466 176.883 72.7077 185.878 81.7027C191.941 87.7657 186.244 109.567 185.925 110.764V148.347L180.116 183.22Z" fill="#2F2E41"/>
<path d="M159.731 90.4942L162.624 61.5677C162.248 60.779 156.838 55.7825 162.494 46.9976L168.604 32.6573L180.045 32.4795L180.093 32.5277C182.785 35.2135 184.77 38.5235 185.872 42.1627C186.974 45.8019 187.158 49.6572 186.408 53.3849L183.037 70.2418L185.958 81.9261L159.731 90.4942Z" fill="#E4E4E4"/>
<path d="M174.761 151.426L193.198 177.359L200.271 172.331L184.873 140.688L174.761 151.426Z" fill="#2F2E41"/>
<path d="M173.255 29.7423C179.09 29.7423 183.82 25.0124 183.82 19.1777C183.82 13.3431 179.09 8.61316 173.255 8.61316C167.421 8.61316 162.691 13.3431 162.691 19.1777C162.691 25.0124 167.421 29.7423 173.255 29.7423Z" fill="#FFB6B6"/>
<path opacity="0.1" d="M170.659 57.3894L173.551 74.7453L170.659 89.2085H164.874L167.503 74.7453L170.659 57.3894Z" fill="black"/>
<path d="M173.418 104.111C173.77 103.795 174.048 103.406 174.233 102.971C174.418 102.536 174.505 102.066 174.489 101.594C174.473 101.122 174.353 100.659 174.139 100.238C173.924 99.8172 173.62 99.4484 173.247 99.1577L176.954 88.2869L171.177 89.7888L168.543 99.8817C168.096 100.54 167.907 101.339 168.01 102.128C168.113 102.917 168.501 103.64 169.102 104.162C169.703 104.683 170.475 104.966 171.27 104.956C172.065 104.947 172.83 104.646 173.418 104.111Z" fill="#FFB6B6"/>
<path d="M174.266 96.4952L168.218 93.4711L174.025 73.1444L165.756 50.4034C165.347 49.2793 165.191 48.079 165.298 46.8878C165.405 45.6965 165.774 44.5434 166.377 43.5105C166.98 42.4776 167.803 41.5901 168.787 40.911C169.772 40.2319 170.894 39.7779 172.074 39.5812C174.205 39.2284 176.39 39.7355 178.147 40.9912C179.905 42.2469 181.093 44.1487 181.451 46.2793L185.932 73.1635L174.266 96.4952Z" fill="#E4E4E4"/>
<path d="M257.509 197.047C257.509 197.097 257.499 197.147 257.48 197.193C257.461 197.24 257.433 197.282 257.397 197.317C257.362 197.353 257.319 197.381 257.273 197.4C257.227 197.419 257.177 197.429 257.126 197.429H49.0841C48.9827 197.429 48.8854 197.389 48.8137 197.317C48.742 197.245 48.7017 197.148 48.7017 197.047C48.7017 196.945 48.742 196.848 48.8137 196.776C48.8854 196.704 48.9827 196.664 49.0841 196.664H257.126C257.228 196.664 257.325 196.705 257.397 196.776C257.468 196.848 257.509 196.945 257.509 197.047Z" fill="#CACACA"/>
<path d="M214.343 18.6612C213.01 20.8249 210.187 21.7787 207.683 21.3455C205.179 20.9123 203.003 19.296 201.396 17.3275C199.789 15.3589 198.677 13.0417 197.583 10.7479C196.489 8.45415 195.382 6.13519 193.783 4.16009C192.184 2.18497 190.02 0.556305 187.519 0.102671C186.158 -0.144207 184.617 0.0187827 183.624 0.981532C182.939 1.70314 182.566 2.66476 182.583 3.65926C182.15 3.50689 181.687 3.46332 181.233 3.53239C180.78 3.60145 180.35 3.78103 179.982 4.0553C179.614 4.32957 179.32 4.6901 179.124 5.10513C178.929 5.52015 178.838 5.97691 178.861 6.43516C178.824 6.43446 178.787 6.432 178.75 6.432C174.091 3.7831 167.019 5.32189 167.019 8.21454C164.462 8.21454 161.338 10.7393 161.338 14.5731C166.625 14.5731 169.736 21.3466 166.649 26.2034C165.853 27.4421 164.974 28.6265 164.02 29.7487H170.631C171.186 28.9529 171.52 28.0247 171.601 27.0581C171.844 27.9363 171.989 28.8386 172.034 29.7487C172.034 29.7487 190.092 32.0756 185.431 14.076C185.74 14.0606 186.04 13.9697 186.305 13.8113C187.009 13.3871 187.392 12.49 187.459 11.5797C187.633 11.6262 187.807 11.6727 187.98 11.719C189.222 12.0544 190.513 12.489 191.366 13.4528C192.807 15.0818 192.504 17.5542 193.027 19.6653C193.658 22.2112 195.546 24.2704 197.644 25.8454C199.897 27.5377 202.53 28.8233 205.335 29.0902C208.14 29.3571 211.126 28.504 213.07 26.4636C215.013 24.4233 215.69 21.1364 214.343 18.6612Z" fill="#2F2E41"/>
</g>
<defs>
<clipPath id="clip0_119_489">
<rect width="214.937" height="197.285" fill="white"/>
</clipPath>
</defs>
</svg>
