<svg width="125" height="160" viewBox="0 0 125 160" fill="none" xmlns="http://www.w3.org/2000/svg">
<g clip-path="url(#clip0_71_1587)">
<path d="M119.468 89.8845C119.28 89.5599 119.166 89.198 119.133 88.8243C119.099 88.4507 119.149 88.0743 119.277 87.7217C119.405 87.3692 119.609 87.049 119.874 86.7838C120.14 86.5185 120.46 86.3147 120.812 86.1866L120.68 77.0691L124.673 79.6201L124.187 87.8872C124.363 88.4937 124.31 89.1438 124.039 89.7141C123.767 90.2844 123.296 90.7354 122.714 90.9816C122.133 91.2278 121.481 91.2521 120.883 91.0499C120.285 90.8477 119.781 90.433 119.468 89.8845Z" fill="#A0616A"/>
<path d="M114.656 40.384C113.472 40.5931 112.397 41.2061 111.615 42.1185C110.832 43.0309 110.39 44.1863 110.364 45.388C110.306 48.0564 111.197 49.0514 112.455 49.4109C114.781 50.0756 118.486 63.5173 118.486 63.5173C118.486 63.5173 118.879 76.0542 119.513 75.4352C120.148 74.8161 119.43 76.2607 119.623 76.7015C119.815 77.1423 118.709 77.8025 119.761 78.3032C120.812 78.8039 120.148 82.7917 120.148 82.7917L124.8 82.4594C124.8 82.4594 124.028 79.2108 125.078 79.0073C126.129 78.8039 125.652 77.8794 125.226 77.1785C124.8 76.4777 125.979 75.4788 125.39 75.1474C124.8 74.8161 126.462 61.8557 126.462 61.8557L119.965 42.7408C119.415 41.8641 118.616 41.1714 117.67 40.7515C116.724 40.3316 115.675 40.2036 114.656 40.384Z" fill="#6C63FF"/>
<path d="M100.541 41.1362L103.888 35.2701H108.409L111.801 41.4685L100.541 41.1362Z" fill="#6C63FF"/>
<path d="M66.9923 66.5322H4.87017C3.67115 66.5309 2.52164 66.0539 1.67381 65.2061C0.82597 64.3583 0.349047 63.2087 0.347656 62.0097V4.27838C0.349047 3.07936 0.82597 1.92986 1.67381 1.08202C2.52164 0.234184 3.67115 -0.24275 4.87017 -0.244141H66.9923C68.1913 -0.242751 69.3408 0.234183 70.1887 1.08202C71.0365 1.92986 71.5134 3.07936 71.5148 4.27838V62.0097C71.5134 63.2087 71.0365 64.3583 70.1887 65.2061C69.3408 66.0539 68.1913 66.5309 66.9923 66.5322Z" fill="#E6E6E6"/>
<path d="M53.9175 63.482H7.92145C6.72243 63.4806 5.57292 63.0037 4.72509 62.1559C3.87725 61.308 3.40032 60.1585 3.39893 58.9595V7.33161C3.40032 6.13259 3.87725 4.98307 4.72509 4.13523C5.57292 3.2874 6.72243 2.81047 7.92145 2.80908H63.9418C65.1409 2.81047 66.2904 3.2874 67.1382 4.13523C67.9861 4.98307 68.463 6.13259 68.4644 7.33161V48.9351C68.46 52.7918 66.926 56.4894 64.1989 59.2165C61.4717 61.9437 57.7742 63.4777 53.9175 63.482Z" fill="white"/>
<path d="M35.9316 53.4167C47.1272 53.4167 56.203 44.3409 56.203 33.1453C56.203 21.9497 47.1272 12.8739 35.9316 12.8739C24.736 12.8739 15.6602 21.9497 15.6602 33.1453C15.6602 44.3409 24.736 53.4167 35.9316 53.4167Z" fill="#6C63FF"/>
<path d="M44.4712 32.1254L37.7065 23.8993C37.523 23.6761 37.2931 23.4955 37.0329 23.37C36.7727 23.2444 36.4883 23.1769 36.1994 23.1721C35.9105 23.1674 35.6241 23.2254 35.3598 23.3423C35.0956 23.4591 34.8599 23.632 34.6691 23.849L27.435 32.0751C27.0865 32.4724 26.91 32.9917 26.9441 33.519C26.9783 34.0463 27.2204 34.5385 27.6172 34.8875C28.014 35.2365 28.5331 35.4136 29.0605 35.3801C29.5878 35.3466 30.0803 35.1051 30.4297 34.7087L34.1726 30.4525V41.125C34.1726 41.6538 34.3826 42.1609 34.7566 42.5349C35.1305 42.9088 35.6377 43.1189 36.1665 43.1189C36.6953 43.1189 37.2025 42.9088 37.5764 42.5349C37.9503 42.1609 38.1604 41.6538 38.1604 41.125V30.7297L41.3911 34.6584C41.727 35.0669 42.2114 35.3251 42.7377 35.3765C43.264 35.4278 43.7892 35.2679 44.1976 34.932C44.6061 34.5961 44.8644 34.1117 44.9157 33.5854C44.967 33.0591 44.8071 32.5339 44.4712 32.1254Z" fill="white"/>
<path d="M123.289 156.577L120.282 156.577L118.851 144.977L123.29 144.977L123.289 156.577Z" fill="#A0616A"/>
<path d="M123.395 159.714L114.147 159.714V159.597C114.147 158.642 114.526 157.727 115.201 157.052C115.876 156.377 116.792 155.998 117.747 155.998L119.436 154.716L122.588 155.998L123.395 155.998L123.395 159.714Z" fill="#2F2E41"/>
<path d="M100.692 156.577L97.6845 156.577L96.2539 144.977L100.693 144.977L100.692 156.577Z" fill="#A0616A"/>
<path d="M100.798 159.714L91.5493 159.714V159.597C91.5494 158.642 91.9287 157.727 92.6037 157.052C93.2788 156.377 94.1943 155.998 95.149 155.998L96.8385 154.716L99.9904 155.998L100.798 155.998L100.798 159.714Z" fill="#2F2E41"/>
<path d="M124.248 146.976C125.345 146.259 124.71 146.306 124.71 146.306C124.71 146.306 122.256 126.413 120.39 120.385L118.23 91.0292C118.23 91.0292 118.092 91.6147 118.23 90.1915C118.367 88.7682 119.364 89.7652 118.367 88.7682C117.37 87.7713 116.705 87.2632 117.37 86.5203C118.034 85.7773 119.868 84.2743 118.785 83.3642C117.702 82.4542 115.571 76.519 115.571 76.519L94.8011 76.6851L95.6319 76.519C95.6319 76.519 93.0392 75.557 94.2268 76.8098C95.4145 78.0625 93.5622 81.1299 92.8976 84.1208C92.3471 86.5979 90.713 87.2552 92.8976 87.7763C95.0822 88.2973 93.1052 89.7738 93.1052 89.7738C93.1052 89.7738 89.8163 105.431 92.3087 115.733C92.3087 115.733 94.0282 141.212 94.8986 143.403C95.7691 145.595 96.1014 144.265 95.7691 145.595C95.4367 146.924 94.7721 144.598 95.4367 146.924C95.7994 148.139 96.0866 149.375 96.2965 150.626L100.804 150.294C100.804 150.294 101.85 146.995 100.804 146.128C99.7569 145.262 100.48 147.79 101.614 145.862C102.748 143.933 101.418 144.598 101.086 141.939C100.754 139.281 103.803 126.896 101.614 119.297L105.659 97.9746L112.082 120.053C112.082 120.053 115.488 147.017 116.595 147.967C117.702 148.918 117.255 146.611 117.702 148.918C118.154 151.249 119.18 150.631 119.151 150.917C118.841 153.965 124.248 150.958 124.248 150.958C124.195 150.184 124.195 149.407 124.248 148.632C124.348 147.921 123.151 147.693 124.248 146.976Z" fill="#2F2E41"/>
<path d="M96.8855 83.4563C95.5562 83.4563 91.9007 81.656 92.5654 80.8946C93.23 80.1331 93.23 77.6054 93.23 76.8753C93.23 76.1453 96.2209 49.2275 96.2209 49.2275L95.9936 42.6368C95.98 42.2417 96.046 41.848 96.1878 41.479C96.3296 41.11 96.5442 40.7733 96.8189 40.489C97.0935 40.2048 97.4226 39.9787 97.7865 39.8243C98.1504 39.6698 98.5416 39.5903 98.9369 39.5903L101.87 38.5933L110.178 38.261L114.321 39.5903C114.732 39.5903 115.136 39.6958 115.495 39.8967C115.853 40.0976 116.155 40.3871 116.369 40.7377C116.584 41.0882 116.705 41.488 116.721 41.8987C116.737 42.3094 116.647 42.7174 116.46 43.0835C118.659 46.6725 119.762 50.825 119.635 55.0319C119.54 58.1793 117.945 62.0232 117.561 65.579C117.527 65.8911 117.502 66.201 117.489 66.508C117.486 66.5937 116.805 67.0203 117.48 66.7642C118.154 66.5081 117.118 67.4121 117.47 67.957C117.822 68.502 118.503 68.168 117.498 68.8335C116.492 69.4989 118.705 75.9266 118.486 76.1453C117.822 76.8099 116.492 77.1422 117.489 78.1392C118.486 79.1362 119.483 78.4715 118.154 79.8008C116.825 81.1301 112.842 83.4563 112.842 83.4563L96.8855 83.4563Z" fill="#3F3D56"/>
<path d="M105.77 34.402C109.72 34.402 112.922 31.1997 112.922 27.2495C112.922 23.2992 109.72 20.0969 105.77 20.0969C101.819 20.0969 98.6172 23.2992 98.6172 27.2495C98.6172 31.1997 101.819 34.402 105.77 34.402Z" fill="#A0616A"/>
<path d="M62.2059 49.4412C62.549 49.2896 62.9212 49.215 63.2962 49.2227C63.6712 49.2304 64.04 49.3203 64.3766 49.486C64.7131 49.6517 65.0093 49.8891 65.2441 50.1816C65.479 50.4741 65.6469 50.8146 65.7359 51.179L74.8138 52.0377L71.8443 55.7302L63.679 54.3486C63.0569 54.4576 62.4164 54.3347 61.879 54.003C61.3415 53.6714 60.9443 53.1541 60.7627 52.5492C60.5812 51.9443 60.6278 51.2938 60.8938 50.721C61.1597 50.1482 61.6266 49.6928 62.2059 49.4412Z" fill="#A0616A"/>
<path d="M105.248 44.1171C105.039 42.9334 104.426 41.8588 103.513 41.0763C102.601 40.2938 101.446 39.8518 100.244 39.8254C97.5755 39.7676 96.5805 40.6581 96.221 41.9164C95.5563 44.2426 84.8567 52.4197 84.8567 52.4197L75.6677 51.4253C75.1152 51.2458 75.3772 50.7426 73.2997 51.169C72.2763 50.4988 71.6146 50.6124 71.0449 50.925L67.6416 50.5567L67.9739 55.8738C67.9739 55.8738 71.6173 55.0071 72.2941 56.5384C72.9708 58.0697 72.816 58.2897 74.288 57.2031C75.76 56.1164 75.6172 57.2031 75.6172 57.2031L86.2514 59.8616L102.891 49.4266C103.768 48.8767 104.461 48.0777 104.88 47.1318C105.3 46.1859 105.428 45.1361 105.248 44.1171Z" fill="#6C63FF"/>
<path d="M108.546 33.6351L109.015 33.7847C107.549 33.9076 104.937 34.7251 105.193 34.2732C105.449 33.8212 104.482 32.1164 104.954 31.9004C105.445 31.7283 105.882 31.4317 106.224 31.0397C106.523 30.621 106.516 29.9298 106.067 29.6739C105.632 29.4213 105.094 29.6938 104.662 29.9497C104.226 30.2023 103.422 26.487 103.628 25.3272C102.415 24.6625 100.946 25.9353 99.5838 25.6861C98.7497 25.5332 98.1482 24.8486 97.7693 24.071C98.3882 23.4839 98.8489 22.7501 99.1086 21.9375C98.5302 22.2289 97.9121 22.4338 97.2742 22.5457C97.1598 21.9423 97.1756 21.3214 97.3207 20.7246C97.432 20.2482 97.6591 19.8066 97.982 19.439C98.3049 19.0715 98.7136 18.7894 99.1717 18.6177C99.6365 18.4635 100.14 18.4724 100.599 18.6428C101.058 18.8131 101.446 19.1348 101.697 19.5548C101.725 19.1024 101.609 18.6528 101.366 18.2706C101.122 17.8884 100.763 17.5934 100.341 17.428C100.649 17.2682 100.99 17.1817 101.337 17.1753C101.684 17.1689 102.028 17.2427 102.341 17.391C102.655 17.5393 102.93 17.7581 103.145 18.0302C103.36 18.3024 103.51 18.6206 103.582 18.96C105.082 18.2079 106.804 18.0237 108.43 18.4415C110.039 18.8636 112.172 20.6481 112.172 20.6481C115.801 21.449 115.628 35.2469 108.546 33.6351Z" fill="#2F2E41"/>
<path d="M39.57 160.184L169.083 160.286C169.188 160.286 169.289 160.245 169.363 160.171C169.437 160.096 169.479 159.996 169.479 159.891C169.479 159.786 169.437 159.685 169.363 159.611C169.289 159.537 169.188 159.495 169.083 159.495L39.57 159.393C39.4651 159.393 39.3644 159.435 39.2902 159.509C39.216 159.583 39.1743 159.684 39.1743 159.789C39.1743 159.894 39.216 159.994 39.2902 160.068C39.3644 160.143 39.4651 160.184 39.57 160.184Z" fill="#CACACA"/>
</g>
<defs>
<clipPath id="clip0_71_1587">
<rect width="125" height="159.884" fill="white"/>
</clipPath>
</defs>
</svg>
