<svg width="172" height="177" viewBox="0 0 172 177" fill="none" xmlns="http://www.w3.org/2000/svg">
<g clip-path="url(#clip0_107_489)">
<path d="M6.50244 175.869C6.50244 176.084 6.67562 176.257 6.89128 176.257H245.19C245.405 176.257 245.578 176.084 245.578 175.869C245.578 175.653 245.405 175.48 245.19 175.48H6.89128C6.67562 175.48 6.50244 175.653 6.50244 175.869Z" fill="#3F3D58"/>
<path d="M82.8093 31.0906H6.3816C3.46696 31.0906 1.09473 28.7184 1.09473 25.8037C1.09473 22.8891 3.46696 20.5168 6.3816 20.5168H82.8093C85.7239 20.5168 88.0962 22.8891 88.0962 25.8037C88.0962 28.7184 85.7239 31.0906 82.8093 31.0906ZM6.3816 21.1704C3.82639 21.1704 1.74823 23.2485 1.74823 25.8037C1.74823 28.3589 3.82639 30.4371 6.3816 30.4371H82.8093C85.3645 30.4371 87.4427 28.3589 87.4427 25.8037C87.4427 23.2485 85.3645 21.1704 82.8093 21.1704H6.3816Z" fill="#E2E3E4"/>
<path d="M82.8092 92.9614H6.38156C3.55514 92.9614 1.25806 90.6643 1.25806 87.8379C1.25806 85.0114 3.55514 82.7144 6.38156 82.7144H82.8092C85.6357 82.7144 87.9327 85.0114 87.9327 87.8379C87.9327 90.6643 85.6357 92.9614 82.8092 92.9614Z" fill="#6C63FF"/>
<path d="M57.7635 10.247H5.1235C2.29708 10.247 0 7.94992 0 5.1235C0 2.29708 2.29708 0 5.1235 0H57.7635C60.59 0 62.887 2.29708 62.887 5.1235C62.887 7.94992 60.59 10.247 57.7635 10.247Z" fill="#E2E3E4"/>
<path d="M82.8093 51.7676H6.3816C3.46696 51.7676 1.09473 49.3954 1.09473 46.4807C1.09473 43.5661 3.46696 41.1938 6.3816 41.1938H82.8093C85.7239 41.1938 88.0962 43.5661 88.0962 46.4807C88.0962 49.3954 85.7239 51.7676 82.8093 51.7676ZM6.3816 41.8474C3.82639 41.8474 1.74823 43.9255 1.74823 46.4807C1.74823 49.0359 3.82639 51.1141 6.3816 51.1141H82.8093C85.3645 51.1141 87.4427 49.0359 87.4427 46.4807C87.4427 43.9255 85.3645 41.8474 82.8093 41.8474H6.3816Z" fill="#E2E3E4"/>
<path d="M82.8093 72.4478H6.3816C3.46696 72.4478 1.09473 70.0755 1.09473 67.1609C1.09473 64.2463 3.46696 61.874 6.3816 61.874H82.8093C85.7239 61.874 88.0962 64.2463 88.0962 67.1609C88.0962 70.0755 85.7239 72.4478 82.8093 72.4478ZM6.3816 62.5275C3.82639 62.5275 1.74823 64.6057 1.74823 67.1609C1.74823 69.7161 3.82639 71.7943 6.3816 71.7943H82.8093C85.3645 71.7943 87.4427 69.7161 87.4427 67.1609C87.4427 64.6057 85.3645 62.5275 82.8093 62.5275H6.3816Z" fill="#E2E3E4"/>
<path d="M23.7845 16.72H3.75445C3.27623 16.72 2.88855 17.1069 2.88855 17.5842C2.88855 18.0616 3.27623 18.4485 3.75445 18.4485H23.7845C24.2627 18.4485 24.6504 18.0616 24.6504 17.5842C24.6504 17.1069 24.2627 16.72 23.7845 16.72Z" fill="#E2E3E4"/>
<path d="M23.7845 37.8871H3.75445C3.27623 37.8871 2.88855 38.274 2.88855 38.7514C2.88855 39.2287 3.27623 39.6156 3.75445 39.6156H23.7845C24.2627 39.6156 24.6504 39.2287 24.6504 38.7514C24.6504 38.274 24.2627 37.8871 23.7845 37.8871Z" fill="#E2E3E4"/>
<path d="M23.7845 59.0575H3.75445C3.27623 59.0575 2.88855 59.4444 2.88855 59.9218C2.88855 60.3991 3.27623 60.786 3.75445 60.786H23.7845C24.2627 60.786 24.6504 60.3991 24.6504 59.9218C24.6504 59.4444 24.2627 59.0575 23.7845 59.0575Z" fill="#E2E3E4"/>
<path d="M146.085 43.2164L138.779 45.6214V35.1031H145.409L146.085 43.2164Z" fill="#9F616A"/>
<path d="M139.684 38.0145C143.705 38.0145 146.964 34.7551 146.964 30.7344C146.964 26.7137 143.705 23.4543 139.684 23.4543C135.663 23.4543 132.404 26.7137 132.404 30.7344C132.404 34.7551 135.663 38.0145 139.684 38.0145Z" fill="#9F616A"/>
<path d="M141.684 30.0123C140.465 29.9764 139.664 28.7445 139.191 27.6205C138.717 26.4964 138.23 25.2058 137.099 24.7418C136.175 24.3627 134.544 26.9278 133.815 26.2448C133.054 25.5325 133.796 21.8761 134.603 21.2194C135.41 20.5626 136.514 20.4352 137.554 20.3861C140.089 20.2685 142.641 20.4744 145.128 20.9939C146.667 21.3141 148.248 21.7977 149.359 22.9087C150.764 24.3203 151.124 26.4474 151.225 28.4374C151.329 30.473 151.212 32.6035 150.222 34.3843C149.232 36.1651 147.16 37.4786 145.173 37.0244C144.974 35.9462 145.177 34.8385 145.255 33.7406C145.33 32.6459 145.252 31.4631 144.582 30.5907C143.915 29.7182 142.484 29.3719 141.707 30.1463" fill="#2F2E43"/>
<path d="M150.64 32.5349C151.369 32.0023 152.241 31.5547 153.137 31.6657C154.104 31.7834 154.924 32.5807 155.172 33.525C155.421 34.4693 155.143 35.5084 154.542 36.2795C153.944 37.0506 153.052 37.5604 152.111 37.8153C151.565 37.9623 150.967 38.0244 150.447 37.8022C149.683 37.4722 149.268 36.4952 149.568 35.7175" fill="#2F2E43"/>
<path d="M122.781 101.032C122.294 103.424 123.186 105.61 124.768 105.914C126.349 106.218 128.025 104.522 128.509 102.13C128.715 101.176 128.682 100.189 128.414 99.2481L134.436 61.7531L126.905 60.335L123.997 98.4018C123.379 99.1729 122.964 100.075 122.781 101.035V101.032Z" fill="#9F616A"/>
<path d="M138.7 40.7952H133.561C129.927 41.3474 128.94 43.285 128.114 46.8662C126.852 52.3296 125.241 59.6031 125.562 59.7109C126.075 59.8809 134.825 63.9979 139.285 63.0569L138.7 40.7952Z" fill="#E2E3E4"/>
<path d="M143.67 160.227H136.828V169.935H143.67V160.227Z" fill="#9F616A"/>
<path d="M130.166 175.81C129.447 175.81 128.806 175.794 128.323 175.748C126.506 175.581 124.771 174.238 123.898 173.454C123.506 173.101 123.382 172.539 123.585 172.056C123.732 171.709 124.023 171.448 124.385 171.346L129.189 169.974L136.965 164.726L137.054 164.883C137.086 164.942 137.851 166.318 138.106 167.246C138.204 167.599 138.178 167.893 138.031 168.121C137.929 168.278 137.786 168.37 137.671 168.422C137.812 168.569 138.253 168.87 139.612 169.085C141.595 169.399 142.014 167.344 142.03 167.259L142.043 167.19L142.102 167.151C143.046 166.543 143.628 166.265 143.827 166.324C143.951 166.36 144.16 166.426 144.726 172.023C144.781 172.199 145.177 173.487 144.909 174.719C144.618 176.058 138.763 175.598 137.589 175.493C137.557 175.496 133.172 175.81 130.169 175.81H130.166Z" fill="#2F2E43"/>
<path d="M163.153 152.6L157.348 156.221L162.485 164.458L168.291 160.837L163.153 152.6Z" fill="#9F616A"/>
<path d="M155.443 174.48C154.639 174.48 153.901 174.382 153.375 174.291C152.859 174.199 152.453 173.787 152.368 173.271C152.31 172.899 152.417 172.523 152.672 172.245L156.022 168.54L159.845 159.972L160.001 160.057C160.06 160.09 161.436 160.851 162.145 161.505C162.416 161.753 162.55 162.018 162.544 162.289C162.54 162.478 162.468 162.629 162.397 162.737C162.593 162.789 163.125 162.808 164.393 162.273C166.242 161.492 165.51 159.525 165.478 159.443L165.452 159.377L165.481 159.315C165.961 158.299 166.305 157.757 166.507 157.701C166.635 157.665 166.844 157.61 170.284 162.063C170.425 162.181 171.441 163.067 171.866 164.253C172.327 165.543 167.115 168.252 166.066 168.781C166.033 168.808 160.58 172.771 158.338 173.898C157.449 174.346 156.397 174.483 155.44 174.483L155.443 174.48Z" fill="#2F2E43"/>
<path d="M148.709 79.0449H129.551L127.813 96.8661L135.42 162.713H145.2L141.288 124.683L157.152 159.018L165.844 152.934L153.457 120.879C153.457 120.879 157.881 92.9548 154.404 85.9982C150.928 79.0449 148.709 79.0449 148.709 79.0449Z" fill="#2F2E43"/>
<path d="M158.24 80.1298H127.813L136.943 40.7952H150.199L158.24 80.1298Z" fill="#E2E3E4"/>
<path d="M160.978 101.032C161.465 103.424 160.573 105.61 158.992 105.914C157.41 106.218 155.734 104.522 155.25 102.13C155.045 101.176 155.077 100.189 155.345 99.2482L149.323 61.7532L156.855 60.3351L159.763 98.4019C160.38 99.173 160.795 100.075 160.978 101.036V101.032Z" fill="#9F616A"/>
<path d="M145.059 40.7952H150.199C153.832 41.3474 154.819 43.285 155.646 46.8662C156.907 52.3296 158.518 59.6031 158.198 59.7109C157.685 59.8809 148.934 63.9979 144.474 63.0569L145.059 40.7952Z" fill="#E2E3E4"/>
</g>
<defs>
<clipPath id="clip0_107_489">
<rect width="172" height="176.095" fill="white"/>
</clipPath>
</defs>
</svg>
