<svg width="279" height="186" viewBox="0 0 279 186" fill="none" xmlns="http://www.w3.org/2000/svg">
<g clip-path="url(#clip0_105_522)">
<path d="M107.55 16.7224H73.8007C72.6429 16.7224 71.7008 15.7804 71.7008 14.6226C71.7008 13.4647 72.6429 12.5227 73.8007 12.5227H107.55C108.708 12.5227 109.65 13.4647 109.65 14.6226C109.65 15.7804 108.708 16.7224 107.55 16.7224Z" fill="#E6E7E8"/>
<path d="M133.889 23.8296H73.8007C72.6429 23.8296 71.7008 22.8876 71.7008 21.7297C71.7008 20.5719 72.6429 19.6299 73.8007 19.6299H133.889C135.047 19.6299 135.989 20.5719 135.989 21.7297C135.989 22.8876 135.047 23.8296 133.889 23.8296Z" fill="#E6E7E8"/>
<path d="M133.889 30.8728H73.8007C72.6429 30.8728 71.7008 29.9308 71.7008 28.773C71.7008 27.6151 72.6429 26.6731 73.8007 26.6731H133.889C135.047 26.6731 135.989 27.6151 135.989 28.773C135.989 29.9308 135.047 30.8728 133.889 30.8728Z" fill="#E6E7E8"/>
<path d="M140.254 67.4233V66.4171C128.64 66.4171 118.498 56.93 115.801 43.7149L120.177 44.8406C118.061 42.8354 115.923 39.4784 114.596 36.7349C113.813 39.6802 112.349 43.3815 110.651 45.7515L114.792 43.7902C117.545 57.5388 128.123 67.4233 140.254 67.4233Z" fill="#3F3D56"/>
<path d="M135.861 28.9176C135.861 30.0272 134.958 30.93 133.848 30.93H107.688C106.578 30.93 105.675 30.0272 105.675 28.9176C105.675 27.808 106.578 26.9053 107.688 26.9053H133.848C134.958 26.9053 135.861 27.808 135.861 28.9176Z" fill="#6C63FF"/>
<path d="M18.0629 141.015C17.6646 139.628 16.9827 138.445 16.1707 137.601L13.2208 124.154L6.79071 125.729L10.4754 139.2C10.2331 140.34 10.2816 141.701 10.6799 143.088C11.5896 146.256 13.9799 148.36 16.0187 147.787C18.0575 147.215 18.9727 144.183 18.0629 141.015Z" fill="#FFB6B6"/>
<path d="M17.1733 52.8024C17.1733 52.8024 10.2282 52.5627 6.20347 57.0905C1.59237 62.7232 -1.55952 84.7942 0.806618 86.2804L7.21732 131.803L16.3589 130.546L14.0127 75.9266L17.1733 52.8024Z" fill="#6C63FF"/>
<path d="M64.0587 129.535L62.3948 185.095H38.498L37.5321 163.679L33.286 185.095H7.67378L10.8684 148.279L14.1686 140.537L16.4024 135.289L64.0587 129.535Z" fill="#2F2E41"/>
<path d="M45.0785 43.7271L28.4765 42.7209L22.9425 49.7642C18.1631 50.7876 13.8461 52.1087 10.8684 54.292C11.5808 75.3845 10.0158 102.811 16.4024 108.123L10.7313 148.15C10.7313 148.15 13.0183 146.19 16.8386 146.882C18.1584 147.121 19.7517 150.094 21.3735 150.274C33.8348 151.659 54.0428 150.235 64.0587 129.535L60.1712 99.5701L61.1773 55.8013C58.0318 53.3149 54.1211 51.699 49.6063 50.7704L45.0785 43.7271Z" fill="#6C63FF"/>
<path d="M77.0399 31.4825C77.22 33.2267 76.9913 34.8669 76.4645 36.182L79.2301 52.6894L71.3367 53.7755L69.3812 36.9136C68.5968 35.7339 68.0376 34.175 67.8575 32.4308C67.446 28.4462 69.1679 25.0038 71.7036 24.7419C74.2392 24.48 76.6284 27.4979 77.0399 31.4825Z" fill="#FFB6B6"/>
<path d="M50.7972 57.0624C49.9708 58.2818 50.201 59.6524 50.0037 61.2992C49.166 68.2904 62.563 88.949 71.8329 91.3276C73.0493 91.6397 73.7423 92.9519 74.97 93.2158C78.6071 93.9975 81.9935 91.1106 81.7972 87.3956L79.2792 39.749L68.7006 43.3572L69.3777 68.0944C69.3103 62.9697 64.6046 57.7516 61.0402 55.5812C61.0402 55.5812 53.8204 52.6019 50.7972 57.0624Z" fill="#6C63FF"/>
<path d="M38.5003 41.4191C46.5768 41.4191 53.124 34.8718 53.124 26.7954C53.124 18.719 46.5768 12.1718 38.5003 12.1718C30.4239 12.1718 23.8767 18.719 23.8767 26.7954C23.8767 34.8718 30.4239 41.4191 38.5003 41.4191Z" fill="#FFB6B6"/>
<path d="M52.1217 16.0572C51.996 16.0874 54.0467 14.0885 54.1341 14.0448C56.1464 13.0387 54.0787 22.8741 52.6248 22.5974C49.0478 21.9182 47.5034 20.5699 46.1148 23.9356C45.7275 24.8713 45.486 25.9278 44.7313 26.5969C43.695 27.5075 41.9744 27.432 41.1292 28.5187C40.45 29.3941 40.6463 30.682 41.1494 31.668C41.6524 32.6591 42.4171 33.4993 42.8749 34.5105C43.3881 35.6475 41.1996 39.2647 40.3645 41.2972V41.3022L40.3596 41.3141C40.1377 41.8472 39.6103 40.3115 39.0536 40.1582C38.3874 39.9748 37.4059 41.5478 36.3448 41.262C36.3398 41.262 36.3348 41.2569 36.3297 41.2569C35.3185 40.9752 34.1916 40.6734 33.0748 40.3715H33.0697C29.9254 39.5163 29.1305 40.7438 28.9796 40.7086L27.0276 38.666C26.3577 38.1783 26.4334 36.6037 25.9611 36.1808C25.5748 35.8349 24.6117 36.6341 24.3279 36.3017C22.9361 34.6716 22.6159 33.041 21.7955 29.8217C21.0459 26.8787 19.4914 18.0696 22.686 17.6721C25.6995 17.2948 23.4959 13.099 26.5296 13.255C26.3485 12.4903 26.6855 11.6702 27.2339 11.1068C27.7772 10.5383 28.5017 10.1861 29.2311 9.88428C32.8282 8.41527 32.2296 7.15254 36.0229 8.00777C36.4002 7.47953 41.2386 6.1024 41.9228 6.27851C41.9731 6.28855 40.8676 8.43542 43.5692 8.00777C43.4686 8.62659 44.9413 7.28468 45.0785 9.51704C47.9599 7.78777 49.5107 11.9268 49.6063 12.5356C49.732 13.2952 48.585 12.9079 49.3497 13.0236C49.8025 13.094 50.5772 14.0147 50.5018 14.4725C50.8288 14.0297 51.1558 13.592 51.4878 13.1493C51.5482 13.1544 51.6035 13.1644 51.6639 13.1745C53.1933 13.4663 51.4399 18.466 51.5029 16.9074C51.6186 14.0448 53.6461 15.7201 52.1217 16.0572Z" fill="#2F2E41"/>
<path d="M238.65 13.059C238.11 17.4999 237.52 21.9348 236.88 26.3624C236.619 28.1607 236.345 29.9819 235.621 31.6486C235.127 32.7863 234.435 33.8253 233.748 34.8573C232.935 36.0768 232.108 37.3119 231.004 38.2759C229.9 39.2399 228.466 39.9168 227.005 39.8035C230.882 37.1936 233.488 32.7795 233.899 28.1241C234.093 25.9358 233.827 23.7361 233.776 21.5398C233.726 19.3436 233.909 17.0708 234.923 15.1217C235.936 13.1725 237.938 11.6122 240.134 11.6676L238.65 13.059Z" fill="#2F2E41"/>
<path d="M199.358 107.777C196.203 110.336 192.326 110.782 190.698 108.775C189.07 106.768 190.307 103.066 193.462 100.507C194.843 99.3874 196.362 98.6722 197.771 98.3902L211.274 87.7164L216.148 94.1597L202.319 103.998C201.752 105.318 200.739 106.657 199.358 107.777Z" fill="#A0616A"/>
<path d="M201.909 93.2868L222.029 74.1956L224.041 72.6863C224.041 72.6863 235.591 61.434 238.582 61.1763C239.848 61.0674 241.115 61.3832 242.182 62.0764C243.906 63.1943 244.799 65.0345 244.799 66.8892C244.799 68.439 244.175 69.9961 242.897 71.143L224.477 87.6792L216.641 94.7132L206.896 103.464L205.905 101.446L202.555 94.608L201.909 93.2868Z" fill="#6C63FF"/>
<path d="M244.93 80.3666L224.785 86.5368C228.158 87.4869 229.57 108.039 226.431 108.677C226.431 108.677 259.819 111.052 257.997 108.677C255.776 105.782 258.754 86.5452 260.175 86.5368L244.93 80.3666Z" fill="#A0616A"/>
<path d="M271.737 185.097L269.976 163.846C269.976 156.245 269.483 149.378 268.693 143.255C265.529 118.679 257.595 106.082 257.595 106.082H227.913C227.872 106.127 227.832 106.162 227.792 106.207L227.787 106.212C220.784 113.573 217.142 132.081 215.522 143.255C214.752 148.573 214.44 152.23 214.44 152.23L211.537 178.028L213.635 185.097H230.906L230.634 183.583L241.748 143.255L241.884 142.762L242.004 143.255L252.308 185.097L271.737 185.097Z" fill="#2F2E41"/>
<path d="M228.521 68.1079L234.793 55.4466L240.078 46.248L244.352 41.8926H256.048L257.137 46.248L263.67 49.8776L265.981 68.0252L257.748 107.4C247.948 99.4145 227.75 97.203 227.75 97.203L224.477 87.6792L222.314 76.2062L222.053 74.8343L228.521 68.1079Z" fill="#6C63FF"/>
<path d="M227.769 91.0116C223.708 90.8964 220.476 88.7085 220.55 86.1248C220.623 83.5411 223.974 81.5399 228.034 81.6551C229.811 81.7056 231.43 82.1532 232.682 82.8573L249.88 83.5613L249.378 91.6248L232.477 90.0749C231.187 90.7069 229.546 91.0621 227.769 91.0116Z" fill="#A0616A"/>
<path d="M249.762 63.489L265.985 79.595L237.727 82.4887L231.16 91.7255L270.547 93.0314C274.1 94.2969 277.885 91.841 278.178 88.0802C278.277 86.8103 270.185 54.5885 265.287 51.5971C259.545 48.0911 249.762 63.489 249.762 63.489Z" fill="#6C63FF"/>
<path d="M261.031 26.089C261.149 18.7734 255.314 12.7473 247.998 12.6293C240.683 12.5114 234.657 18.3462 234.539 25.6619C234.421 32.9775 240.256 39.0036 247.571 39.1215C254.887 39.2395 260.913 33.4047 261.031 26.089Z" fill="#A0616A"/>
<path d="M276.866 67.1524C276.534 68.4102 273.948 69.0591 273.344 70.6741C271.422 71.7708 272.464 62.8108 271.689 62.2222C271.09 61.7744 270.929 62.856 270.793 61.9253C270.28 58.4339 266.925 59.2137 264.439 58.6502C264.158 58.1019 263.941 57.5686 263.8 57.0504C263.549 56.1146 262.402 55.7876 261.723 56.4769C261.416 56.2052 261.194 55.2443 260.978 54.2834C260.822 53.5841 260.666 52.8848 260.485 52.4421L258.754 48.5381L259.313 51.446C258.181 51.0385 257.039 51.4611 256.38 50.0625C255.535 48.2664 255.198 46.1635 255.811 44.2769C256.37 42.5665 257.31 39.1404 258.372 36.303C257.17 37.1733 255.726 37.8072 254.05 38.1242C254.644 36.9973 255.248 35.8502 255.499 34.5975C255.746 33.3448 255.595 31.9513 254.8 30.9551C254.146 30.1351 253.18 30.3414 252.365 29.6823C251.731 29.1692 251.183 27.8561 250.8 27.1367C252.431 32.555 253.663 38.3103 251.59 43.4821C250.157 47.0641 247.138 49.9769 243.516 51.3001C245.443 49.9216 247.324 48.4526 248.768 46.5811C250.312 44.5738 251.319 42.0382 251.012 39.5227C250.529 35.5735 243.204 23.0818 242.303 20.6267C242.796 23.0265 242.605 24.898 241.307 25.9293C240.97 22.4479 237.177 22.7648 235.109 21.3713C235.109 21.3713 233.509 12.3308 237.262 12.2754C239.073 12.2503 240.97 7.99414 242.615 7.23447C245.241 6.02204 246.851 6.84711 249.764 6.93766C252.672 7.02317 255.464 8.27586 257.24 10.575C258.171 11.7774 258.513 10.8215 259.911 11.5711C261.24 12.2805 262.135 11.6214 263.639 11.6667C266.653 11.7472 269.576 13.3571 271.266 15.8474C272.957 18.3427 273.998 18.1113 273.329 21.97C273.319 22.0152 273.319 22.1058 273.329 22.2416C273.696 28.319 272.755 34.4114 270.346 40.0057C269.601 41.7263 273.243 43.5021 273.238 45.6503C273.233 48.1456 269.214 50.4197 269.586 51.4862C270.652 56.6228 276.644 55.4807 275.231 64.0786C275.115 64.7778 277.087 66.3122 276.866 67.1524Z" fill="#2F2E41"/>
<path d="M240.164 51.4212C240.275 51.386 240.385 51.3457 240.496 51.3004C240.355 51.401 240.219 51.4966 240.078 51.5973L240.164 51.4212Z" fill="#2F2E41"/>
<path d="M258.825 9.03559C257.383 9.24975 255.919 6.85879 256.738 3.54309C258.521 6.26961 259.432 9.339 259.576 12.7105L258.615 13.0082L258.825 9.03559Z" fill="#6C63FF"/>
<path d="M266.187 5.94067C265.204 9.42539 260.21 11.7575 259.328 10.5448L259.227 12.6229L258.609 11.8286C260.4 9.16505 262.842 7.12176 266.187 5.94067Z" fill="#6C63FF"/>
<path d="M156.522 99.9104C156.522 98.7526 157.464 97.8105 158.621 97.8105H192.371C193.529 97.8105 194.471 98.7526 194.471 99.9104C194.471 101.068 193.529 102.01 192.371 102.01H158.621C157.464 102.01 156.522 101.068 156.522 99.9104Z" fill="#E6E7E8"/>
<path d="M156.522 113.997C156.522 112.839 157.464 111.897 158.621 111.897H192.371C193.529 111.897 194.471 112.839 194.471 113.997C194.471 115.155 193.529 116.097 192.371 116.097H158.621C157.464 116.097 156.522 115.155 156.522 113.997Z" fill="#E6E7E8"/>
<path d="M132.283 109.118C131.125 109.118 130.183 108.176 130.183 107.018C130.183 105.86 131.125 104.918 132.283 104.918H192.371C193.529 104.918 194.471 105.86 194.471 107.018C194.471 108.176 193.529 109.118 192.371 109.118H132.283Z" fill="#E6E7E8"/>
<path d="M127.816 89.0201L123.675 87.0588C125.374 89.4288 126.837 93.1301 127.62 96.0754C128.947 93.3319 131.085 89.9749 133.202 87.9697L128.826 89.0954C131.522 75.8803 141.664 66.3931 153.278 66.3931V65.387C141.147 65.387 130.569 75.2714 127.816 89.0201Z" fill="#3F3D56"/>
<path d="M146.872 109.156H120.712C119.602 109.156 118.699 108.253 118.699 107.143C118.699 106.034 119.602 105.131 120.712 105.131H146.872C147.982 105.131 148.885 106.034 148.885 107.143C148.885 108.253 147.982 109.156 146.872 109.156Z" fill="#6C63FF"/>
<path d="M154.513 68.0003C155.21 63.7061 152.294 59.66 148 58.9631C143.705 58.2663 139.659 61.1825 138.962 65.4767C138.266 69.7709 141.182 73.817 145.476 74.5138C149.77 75.2107 153.816 72.2945 154.513 68.0003Z" fill="#3F3D56"/>
<path d="M103.975 9.71704C106.658 9.71704 108.834 7.54181 108.834 4.85852C108.834 2.17523 106.658 0 103.975 0C101.292 0 99.1167 2.17523 99.1167 4.85852C99.1167 7.54181 101.292 9.71704 103.975 9.71704Z" fill="#E6E7E8"/>
<path d="M160.824 93.7329C163.508 93.7329 165.683 91.5577 165.683 88.8744C165.683 86.1911 163.508 84.0159 160.824 84.0159C158.141 84.0159 155.966 86.1911 155.966 88.8744C155.966 91.5577 158.141 93.7329 160.824 93.7329Z" fill="#E6E7E8"/>
</g>
<defs>
<clipPath id="clip0_105_522">
<rect width="278.179" height="185.097" fill="white"/>
</clipPath>
</defs>
</svg>
