<svg width="29" height="29" viewBox="0 0 29 29" fill="none" xmlns="http://www.w3.org/2000/svg">
<g clip-path="url(#clip0_100_1430)">
<path d="M14.263 19.973C19.1862 19.973 23.1773 15.9819 23.1773 11.0587C23.1773 6.13546 19.1862 2.14438 14.263 2.14438C9.33971 2.14438 5.34863 6.13546 5.34863 11.0587C5.34863 15.9819 9.33971 19.973 14.263 19.973Z" stroke="white" stroke-width="1.78286" stroke-linecap="round" stroke-linejoin="round"/>
<path d="M14.2629 16.4073C17.2168 16.4073 19.6115 14.0127 19.6115 11.0587C19.6115 8.10476 17.2168 5.71011 14.2629 5.71011C11.309 5.71011 8.91431 8.10476 8.91431 11.0587C8.91431 14.0127 11.309 16.4073 14.2629 16.4073Z" stroke="white" stroke-width="1.78286" stroke-linecap="round" stroke-linejoin="round"/>
<path d="M19.6115 18.1902V27.1045L14.2629 24.4302L8.91431 27.1045V18.1902" stroke="white" stroke-width="1.78286" stroke-linecap="round" stroke-linejoin="round"/>
</g>
<defs>
<clipPath id="clip0_100_1430">
<rect width="28.5258" height="28.5258" fill="white" transform="translate(0 0.361511)"/>
</clipPath>
</defs>
</svg>
