<svg width="27" height="27" viewBox="0 0 27 27" fill="none" xmlns="http://www.w3.org/2000/svg">
<path d="M23.625 13.5C23.625 13.7238 23.5361 13.9384 23.3779 14.0966C23.2196 14.2549 23.005 14.3438 22.7812 14.3438H4.21875C3.99497 14.3438 3.78036 14.2549 3.62213 14.0966C3.4639 13.9384 3.375 13.7238 3.375 13.5C3.375 13.2762 3.4639 13.0616 3.62213 12.9034C3.78036 12.7451 3.99497 12.6562 4.21875 12.6562H22.7812C23.005 12.6562 23.2196 12.7451 23.3779 12.9034C23.5361 13.0616 23.625 13.2762 23.625 13.5ZM4.21875 7.59375H22.7812C23.005 7.59375 23.2196 7.50486 23.3779 7.34662C23.5361 7.18839 23.625 6.97378 23.625 6.75C23.625 6.52622 23.5361 6.31161 23.3779 6.15338C23.2196 5.99515 23.005 5.90625 22.7812 5.90625H4.21875C3.99497 5.90625 3.78036 5.99515 3.62213 6.15338C3.4639 6.31161 3.375 6.52622 3.375 6.75C3.375 6.97378 3.4639 7.18839 3.62213 7.34662C3.78036 7.50486 3.99497 7.59375 4.21875 7.59375ZM22.7812 19.4062H4.21875C3.99497 19.4062 3.78036 19.4951 3.62213 19.6534C3.4639 19.8116 3.375 20.0262 3.375 20.25C3.375 20.4738 3.4639 20.6884 3.62213 20.8466C3.78036 21.0049 3.99497 21.0938 4.21875 21.0938H22.7812C23.005 21.0938 23.2196 21.0049 23.3779 20.8466C23.5361 20.6884 23.625 20.4738 23.625 20.25C23.625 20.0262 23.5361 19.8116 23.3779 19.6534C23.2196 19.4951 23.005 19.4062 22.7812 19.4062Z" fill="white"/>
</svg>
