<svg width="227" height="155" viewBox="0 0 227 155" fill="none" xmlns="http://www.w3.org/2000/svg">
<g clip-path="url(#clip0_105_521)">
<path d="M33.6244 154.754C51.8905 154.754 66.6981 139.947 66.6981 121.681C66.6981 103.415 51.8905 88.6069 33.6244 88.6069C15.3584 88.6069 0.550781 103.415 0.550781 121.681C0.550781 139.947 15.3584 154.754 33.6244 154.754Z" fill="#F2F2F2"/>
<path d="M66.8774 33.3034C66.8658 39.8448 64.9147 46.2358 61.2709 51.6683C57.6271 57.1008 52.4541 61.3307 46.4063 63.8233C40.3584 66.3158 33.7073 66.959 27.2939 65.6715C20.8805 64.3839 14.993 61.2235 10.3757 56.5899C5.75851 51.9563 2.619 46.0575 1.35423 39.6396C0.0894524 33.2217 0.756212 26.5729 3.27019 20.5339C5.78417 14.4949 10.0324 9.33705 15.4778 5.71252C20.9232 2.08799 27.3211 0.159597 33.8624 0.171195C38.2089 0.167622 42.5132 1.02303 46.528 2.68826C50.5429 4.3535 54.189 6.79572 57.257 9.87459C60.325 12.9535 62.7542 16.6083 64.4052 20.629C66.0562 24.6497 66.8964 28.957 66.8774 33.3034Z" fill="#F2F2F2"/>
<path d="M112.107 154.754C130.373 154.754 145.181 139.947 145.181 121.681C145.181 103.415 130.373 88.6069 112.107 88.6069C93.8412 88.6069 79.0336 103.415 79.0336 121.681C79.0336 139.947 93.8412 154.754 112.107 154.754Z" fill="#F2F2F2"/>
<path d="M112.011 66.3184C130.277 66.3184 145.085 51.5109 145.085 33.2448C145.085 14.9787 130.277 0.171143 112.011 0.171143C93.745 0.171143 78.9374 14.9787 78.9374 33.2448C78.9374 51.5109 93.745 66.3184 112.011 66.3184Z" fill="#F2F2F2"/>
<path d="M192.619 66.3184C210.886 66.3184 225.693 51.5109 225.693 33.2448C225.693 14.9787 210.886 0.171143 192.619 0.171143C174.353 0.171143 159.546 14.9787 159.546 33.2448C159.546 51.5109 174.353 66.3184 192.619 66.3184Z" fill="#F2F2F2"/>
<path d="M193.815 154.754C212.081 154.754 226.888 139.947 226.888 121.681C226.888 103.415 212.081 88.6069 193.815 88.6069C175.549 88.6069 160.741 103.415 160.741 121.681C160.741 139.947 175.549 154.754 193.815 154.754Z" fill="#F2F2F2"/>
<path d="M18.4743 22.4859C19.8418 18.1275 22.9518 14.1301 27.2527 12.6567C31.5539 11.1833 37.852 13.4278 41.0855 16.6504C47.0003 22.5452 48.4438 42.7959 44.3801 49.1954C43.5718 49.1526 40.7827 49.121 39.9646 49.0903L38.8073 45.2332V49.0523C37.504 49.012 36.1905 48.9842 34.8668 48.9689C30.4287 48.9138 26.1847 47.1402 23.0272 44.021C19.8696 40.9017 18.0444 36.6797 17.9352 32.2426C17.8293 27.9978 17.9353 24.2035 18.4743 22.4859Z" fill="#2F2E41"/>
<path d="M33.3132 36.9309C38.5189 36.9309 42.739 32.7108 42.739 27.5051C42.739 22.2994 38.5189 18.0793 33.3132 18.0793C28.1075 18.0793 23.8875 22.2994 23.8875 27.5051C23.8875 32.7108 28.1075 36.9309 33.3132 36.9309Z" fill="#9E616A"/>
<path d="M25.1785 19.227L36.0313 13.7927C38.2501 14.7926 40.161 16.3678 41.5659 18.355C42.9707 20.3423 43.8183 22.6692 44.0208 25.0944L44.2913 28.3347L39.7467 27.1778L39.2488 23.0345L38.477 26.8546L36.3797 26.321L36.3996 19.8885L34.301 26.3164L26.8103 24.5954L25.1785 19.227Z" fill="#2F2E41"/>
<path d="M103.025 109.27C105.604 109.27 107.695 107.18 107.695 104.601C107.695 102.022 105.604 99.9314 103.025 99.9314C100.446 99.9314 98.3557 102.022 98.3557 104.601C98.3557 107.18 100.446 109.27 103.025 109.27Z" fill="#2F2E41"/>
<path d="M110.496 127.014C117.029 127.014 122.326 121.718 122.326 115.185C122.326 108.652 117.029 103.356 110.496 103.356C103.963 103.356 98.667 108.652 98.667 115.185C98.667 121.718 103.963 127.014 110.496 127.014Z" fill="#2F2E41"/>
<path d="M111.475 127.011C116.784 127.011 121.088 122.708 121.088 117.399C121.088 112.09 116.784 107.786 111.475 107.786C106.166 107.786 101.863 112.09 101.863 117.399C101.863 122.708 106.166 127.011 111.475 127.011Z" fill="#9E616A"/>
<path d="M118.003 107.6C116.319 106.573 114.389 106.018 112.417 105.992C110.444 105.966 108.501 106.47 106.79 107.452C105.079 108.434 103.663 109.858 102.691 111.574C101.719 113.291 101.225 115.237 101.263 117.21C106.161 118.439 111.306 119.38 116.53 117.504L117.764 114.485L118.491 117.506C120.082 118.156 121.676 118.706 123.271 117.5C123.336 115.533 122.884 113.583 121.96 111.846C121.035 110.109 119.671 108.645 118.003 107.6Z" fill="#2F2E41"/>
<path d="M98.6777 91.9251C95.4488 90.4446 91.3974 91.1393 88.7088 93.4608C86.0203 95.7823 84.7421 99.5606 85.2612 103.075C85.7906 106.659 87.97 109.746 89.9788 112.762C91.9877 115.778 93.9503 119.083 93.948 122.707C93.9464 125.317 92.9098 127.82 91.0655 129.666C89.2213 131.513 86.7198 132.553 84.1099 132.558C87.1731 133.877 90.3703 135.222 93.7017 135.065C97.0331 134.909 100.525 132.767 101.068 129.477C101.46 127.106 100.297 124.794 99.3265 122.596C97.7463 119.013 96.6041 115.253 95.9246 111.397C95.6006 109.557 95.3897 107.622 95.9897 105.852C96.4675 104.541 97.354 103.418 98.5186 102.649C99.6832 101.879 101.064 101.504 102.458 101.58L103.559 100.589C104.048 97.0711 101.907 93.4056 98.6777 91.9251Z" fill="#2F2E41"/>
<path d="M179.122 20.3082C178.668 22.747 177.923 25.1227 176.904 27.3845C171.07 39.7268 187.685 35.7038 193.623 35.7038C200.114 35.7038 206.326 39.1175 205.377 23.9493C204.972 17.4701 200.114 12.1947 193.623 12.1947C188.077 12.1947 180.281 14.6594 179.122 20.3082Z" fill="#2F2E41"/>
<path d="M192.65 35.701C197.925 35.701 202.202 31.4244 202.202 26.1491C202.202 20.8737 197.925 16.5972 192.65 16.5972C187.375 16.5972 183.098 20.8737 183.098 26.1491C183.098 31.4244 187.375 35.701 192.65 35.701Z" fill="#FFB6B6"/>
<path d="M186.163 16.4122C187.837 15.3918 189.754 14.8398 191.714 14.8139C193.674 14.7881 195.605 15.2893 197.306 16.2653C199.006 17.2412 200.412 18.6559 201.379 20.3616C202.345 22.0673 202.835 24.0012 202.798 25.9611C197.931 27.1831 192.817 28.1183 187.627 26.2534L186.401 23.2534L185.679 26.2556C184.098 26.9017 182.513 27.4484 180.928 26.2494C180.864 24.295 181.313 22.3578 182.232 20.6315C183.15 18.9052 184.506 17.4503 186.163 16.4122Z" fill="#2F2E41"/>
<path d="M33.9252 124.792C40.4323 124.792 45.7073 119.517 45.7073 113.01C45.7073 106.503 40.4323 101.228 33.9252 101.228C27.4182 101.228 22.1432 106.503 22.1432 113.01C22.1432 119.517 27.4182 124.792 33.9252 124.792Z" fill="#FFB8B8"/>
<path d="M113.359 36.6185C119.315 36.6185 124.144 31.79 124.144 25.8338C124.144 19.8776 119.315 15.0491 113.359 15.0491C107.403 15.0491 102.574 19.8776 102.574 25.8338C102.574 31.79 107.403 36.6185 113.359 36.6185Z" fill="#FFB8B8"/>
<path d="M122.855 18.7092C122.855 18.7092 125.663 13.3412 119.485 12.8532C119.485 12.8532 114.219 8.07585 108.851 11.9798C108.851 11.9798 105.923 11.9798 104.321 15.2932C104.321 15.2932 102.019 14.4198 101.513 16.7572C101.513 16.7572 99.8275 21.6372 101.513 26.0292C103.198 30.4212 103.757 30.9092 103.757 30.9092C103.757 30.9092 102.575 25.459 109.315 24.971C116.055 24.483 122.238 20.2608 122.799 25.6288C123.361 30.9967 123.979 28.5718 123.979 28.5718C123.979 28.5718 129.313 20.9052 122.855 18.7092Z" fill="#2F2E41"/>
<path d="M192.902 125.778C198.733 125.778 203.459 121.051 203.459 115.22C203.459 109.39 198.733 104.663 192.902 104.663C187.071 104.663 182.345 109.39 182.345 115.22C182.345 121.051 187.071 125.778 192.902 125.778Z" fill="#FFB6B6"/>
<path d="M58.3465 143.413C52.6166 149.932 44.5527 153.937 35.8954 154.563C27.2382 155.189 18.6822 152.385 12.0743 146.757L14.9111 138.841C15.5522 137.435 16.5639 136.23 17.8377 135.356C19.1114 134.481 20.5993 133.969 22.1416 133.876L23.9463 133.765L28.2496 130.054C28.2496 130.054 39.8447 129.64 39.6726 129.442L46.6961 133.666L46.6903 133.637L49.4513 133.806C50.9938 133.899 52.4818 134.41 53.7556 135.285C55.0295 136.16 56.041 137.365 56.6818 138.771L58.3465 143.413Z" fill="#6C63FF"/>
<path d="M136.993 143.809C131.263 150.329 123.199 154.334 114.542 154.96C105.884 155.586 97.3284 152.782 90.7205 147.154L93.5573 139.238C94.1984 137.832 95.2101 136.627 96.4838 135.752C97.7576 134.878 99.2455 134.366 100.788 134.273L102.593 134.162L106.896 130.451C106.896 130.451 118.491 130.036 118.319 129.838L125.342 134.063L125.336 134.034L128.097 134.203C129.64 134.296 131.128 134.807 132.402 135.682C133.676 136.557 134.687 137.762 135.328 139.168L136.993 143.809Z" fill="#6C63FF"/>
<path d="M218.627 143.809C212.897 150.329 204.833 154.334 196.176 154.96C187.519 155.586 178.963 152.782 172.355 147.154L175.192 139.238C175.833 137.832 176.845 136.627 178.118 135.752C179.392 134.878 180.88 134.366 182.422 134.273L184.227 134.162L188.53 130.451C188.53 130.451 200.125 130.036 199.953 129.838L206.977 134.063L206.971 134.034L209.732 134.203C211.274 134.296 212.762 134.807 214.036 135.682C215.31 136.557 216.322 137.762 216.962 139.168L218.627 143.809Z" fill="#6C63FF"/>
<path d="M58.3465 55.1316C52.6166 61.6513 44.5527 65.6563 35.8954 66.282C27.2382 66.9076 18.6822 64.1038 12.0743 58.4757L14.9111 50.56C15.5522 49.1541 16.5639 47.9492 17.8377 47.0745C19.1114 46.1998 20.5993 45.6883 22.1416 45.5949L23.9463 45.4841L28.2496 41.7727C28.2496 41.7727 39.8447 41.3587 39.6726 41.1604L46.6961 45.385L46.6903 45.3558L49.4513 45.5249C50.9938 45.618 52.4818 46.1293 53.7556 47.004C55.0295 47.8788 56.041 49.0839 56.6818 50.4901L58.3465 55.1316Z" fill="#6C63FF"/>
<path d="M136.701 55.2367C130.971 61.7564 122.907 65.7614 114.25 66.3871C105.593 67.0127 97.0368 64.2089 90.429 58.5808L93.2658 50.6651C93.9069 49.2592 94.9186 48.0543 96.1923 47.1796C97.4661 46.3049 98.954 45.7934 100.496 45.7L102.301 45.5892L106.604 41.8778C106.604 41.8778 118.199 41.4637 118.027 41.2655L125.051 45.4901L125.045 45.4609L127.806 45.63C129.348 45.7231 130.836 46.2344 132.11 47.1091C133.384 47.9839 134.396 49.189 135.036 50.5952L136.701 55.2367Z" fill="#6C63FF"/>
<path d="M217.336 55.2367C211.606 61.7564 203.542 65.7614 194.885 66.3871C186.227 67.0127 177.671 64.2089 171.063 58.5808L173.9 50.6651C174.541 49.2592 175.553 48.0543 176.827 47.1796C178.101 46.3049 179.588 45.7934 181.131 45.7L182.935 45.5892L187.239 41.8778C187.239 41.8778 198.834 41.4637 198.662 41.2655L205.685 45.4901L205.679 45.4609L208.44 45.63C209.983 45.7231 211.471 46.2344 212.745 47.1091C214.019 47.9839 215.03 49.189 215.671 50.5952L217.336 55.2367Z" fill="#6C63FF"/>
<path d="M204.037 108.673C203.144 105.479 201.117 102.722 198.336 100.917C196.12 99.4993 193.354 98.7756 190.843 99.5253C188.332 100.275 186.253 102.739 186.417 105.402C185.511 105.093 184.48 105.504 183.817 106.205C183.153 106.906 182.797 107.849 182.541 108.788C181.735 111.773 181.789 114.925 182.695 117.881L182.645 118.306C183.87 118.103 184.8 117.052 185.377 115.932C185.955 114.812 186.288 113.57 186.914 112.477C187.54 111.385 188.58 110.41 189.821 110.376L189.712 112.272C190.779 111.722 191.846 111.172 192.914 110.623C192.66 111.23 192.406 111.837 192.152 112.445C193.084 112.055 194.016 111.665 194.949 111.276C194.844 111.86 194.74 112.444 194.636 113.028C195.56 110.924 198.419 109.999 200.364 111.176C201.494 111.859 202.235 113.077 202.625 114.355C203.014 115.634 203.092 116.987 203.166 118.324C204.606 115.316 204.915 111.89 204.037 108.673Z" fill="#2F2E41"/>
<path d="M46.3555 108.878C46.4382 107.998 46.476 107.115 46.469 106.231C46.5171 104.484 46.197 102.746 45.5294 101.131C44.7083 99.3421 43.2443 97.9278 41.4283 97.1689C39.6284 96.4429 37.6168 96.4447 35.8181 97.1738C34.1942 96.1478 32.3898 95.3344 30.4896 95.2337C28.5894 95.1329 26.5803 95.8379 25.4093 97.3897C25.1478 97.7994 24.8508 98.1852 24.5217 98.5428C23.5804 99.4145 22.1499 99.2888 20.8987 99.1106C21.4599 99.5915 22.0212 100.072 22.5827 100.553C21.9034 100.731 21.2241 100.908 20.5446 101.086C21.3374 101.567 22.1301 102.047 22.9227 102.528C20.6214 103.909 19.5754 106.924 19.8517 109.662C20.1131 112.255 21.3647 114.625 22.8608 116.732C23.4577 115.473 23.3291 113.966 23.3192 112.547C23.3137 112.087 23.3418 111.627 23.4032 111.171C28.4595 112.383 33.7427 113.161 39.1005 111.236L40.1757 108.605C40.3265 108.62 40.4775 108.635 40.6283 108.651L41.2512 111.239C42.6635 111.816 44.0787 112.32 45.4945 111.79C45.5634 112.19 45.6049 112.598 45.6368 112.99C45.7583 112.521 45.8637 112.049 45.9587 111.574C46.1459 111.474 46.3251 111.359 46.4948 111.232C46.529 110.444 46.4823 109.656 46.3555 108.878Z" fill="#2F2E41"/>
</g>
<defs>
<clipPath id="clip0_105_521">
<rect width="227" height="155" fill="white"/>
</clipPath>
</defs>
</svg>
