<svg width="47" height="47" viewBox="0 0 47 47" fill="none" xmlns="http://www.w3.org/2000/svg">
<g clip-path="url(#clip0_144_463)">
<path d="M23.5 41.125C33.234 41.125 41.125 33.234 41.125 23.5C41.125 13.766 33.234 5.875 23.5 5.875C13.766 5.875 5.875 13.766 5.875 23.5C5.875 33.234 13.766 41.125 23.5 41.125Z" stroke="white" stroke-width="2.9375" stroke-linecap="round" stroke-linejoin="round"/>
<path d="M23.5 29.375C27.5558 29.375 30.8438 26.0871 30.8438 22.0312C30.8438 17.9754 27.5558 14.6875 23.5 14.6875C19.4442 14.6875 16.1562 17.9754 16.1562 22.0312C16.1562 26.0871 19.4442 29.375 23.5 29.375Z" stroke="white" stroke-width="2.9375" stroke-linecap="round" stroke-linejoin="round"/>
<path d="M11.7133 36.6086C12.8184 34.4319 14.5046 32.6038 16.5851 31.3268C18.6655 30.0498 21.0589 29.3739 23.5 29.3739C25.9411 29.3739 28.3346 30.0498 30.415 31.3268C32.4955 32.6038 34.1817 34.4319 35.2868 36.6086" stroke="white" stroke-width="2.9375" stroke-linecap="round" stroke-linejoin="round"/>
</g>
<defs>
<clipPath id="clip0_144_463">
<rect width="47" height="47" fill="white"/>
</clipPath>
</defs>
</svg>
