<svg width="117" height="146" viewBox="0 0 117 146" fill="none" xmlns="http://www.w3.org/2000/svg">
<g clip-path="url(#clip0_71_1031)">
<path d="M116.05 133.875C115.973 133.641 115.391 133.744 115.336 133.534C115.28 133.325 115.838 133.149 116.266 132.56C116.343 132.453 116.829 131.783 116.643 131.502C116.289 130.967 113.83 132.298 113.239 131.551C113.11 131.387 113.056 131.106 112.67 130.583C112.517 130.374 112.418 130.274 112.3 130.277C112.133 130.281 112.074 130.49 111.811 130.868C111.417 131.436 111.275 131.365 111.016 131.83C110.824 132.175 110.801 132.396 110.662 132.409C110.465 132.427 110.384 131.997 110.144 131.981C109.899 131.964 109.654 132.388 109.533 132.72C109.304 133.343 109.446 133.819 109.477 134.293C109.511 134.809 109.431 135.563 108.871 136.532L103.588 144.949C104.722 143.233 107.943 138.554 109.241 136.838C109.615 136.342 110.018 135.845 110.638 135.751C111.234 135.661 111.96 135.956 112.973 135.939C113.091 135.937 113.421 135.927 113.501 135.753C113.567 135.608 113.402 135.483 113.462 135.347C113.543 135.165 113.903 135.244 114.395 135.123C114.742 135.037 114.978 134.897 115.18 134.776C115.242 134.739 116.152 134.188 116.05 133.875Z" fill="#F2F2F2"/>
<path d="M102.212 135.841C102.074 135.811 101.957 136.126 101.838 136.093C101.72 136.059 101.794 135.735 101.628 135.355C101.599 135.286 101.41 134.854 101.218 134.865C100.854 134.884 100.797 136.475 100.26 136.549C100.142 136.566 99.9889 136.511 99.6207 136.549C99.4741 136.564 99.3964 136.584 99.3639 136.642C99.3177 136.726 99.403 136.815 99.5131 137.053C99.6781 137.41 99.6021 137.459 99.7555 137.721C99.8695 137.915 99.9711 137.99 99.9375 138.062C99.8898 138.163 99.6554 138.079 99.578 138.192C99.4989 138.308 99.6367 138.551 99.7645 138.706C100.004 138.997 100.279 139.066 100.521 139.187C100.783 139.319 101.131 139.576 101.444 140.13L104.051 145.152C103.537 144.1 102.169 141.169 101.701 140.037C101.566 139.71 101.438 139.369 101.571 139.038C101.699 138.719 102.053 138.448 102.337 137.946C102.37 137.887 102.46 137.723 102.398 137.633C102.346 137.559 102.237 137.604 102.188 137.535C102.122 137.443 102.264 137.289 102.347 137.012C102.405 136.818 102.404 136.661 102.403 136.527C102.403 136.486 102.395 135.881 102.212 135.841Z" fill="#F2F2F2"/>
<path d="M104.812 137.066L104.894 136.309L104.945 136.262C105.177 136.042 105.323 135.809 105.377 135.57C105.386 135.531 105.393 135.493 105.4 135.454C105.427 135.298 105.461 135.105 105.61 134.904C105.694 134.792 105.915 134.539 106.144 134.627C106.205 134.651 106.247 134.69 106.276 134.733C106.283 134.725 106.29 134.718 106.298 134.71C106.397 134.614 106.466 134.579 106.532 134.545C106.583 134.519 106.636 134.493 106.725 134.421C106.765 134.39 106.796 134.362 106.822 134.338C106.902 134.267 107.005 134.183 107.145 134.216C107.294 134.257 107.345 134.399 107.379 134.493C107.439 134.66 107.458 134.775 107.47 134.852C107.475 134.88 107.48 134.911 107.484 134.922C107.516 135.004 107.925 135.025 108.079 135.034C108.425 135.052 108.724 135.069 108.796 135.305C108.848 135.475 108.74 135.66 108.467 135.869C108.382 135.934 108.297 135.979 108.223 136.013C108.268 136.056 108.305 136.115 108.307 136.195C108.312 136.383 108.118 136.528 107.731 136.626C107.635 136.651 107.506 136.683 107.336 136.675C107.256 136.671 107.187 136.659 107.127 136.647C107.118 136.681 107.102 136.717 107.072 136.75C106.986 136.849 106.847 136.874 106.658 136.818C106.45 136.76 106.285 136.681 106.14 136.612C106.013 136.551 105.903 136.499 105.811 136.485C105.64 136.461 105.481 136.567 105.29 136.707L104.812 137.066Z" fill="#F2F2F2"/>
<path d="M106.176 132.757L105.424 132.869L105.365 132.833C105.094 132.664 104.832 132.582 104.586 132.59C104.547 132.591 104.508 132.595 104.468 132.598C104.311 132.611 104.115 132.627 103.883 132.534C103.753 132.481 103.453 132.331 103.48 132.088C103.487 132.022 103.515 131.972 103.549 131.933C103.54 131.928 103.531 131.923 103.521 131.917C103.403 131.846 103.352 131.788 103.302 131.732C103.264 131.69 103.225 131.645 103.133 131.577C103.093 131.547 103.058 131.524 103.028 131.505C102.939 131.445 102.832 131.367 102.828 131.223C102.83 131.069 102.954 130.983 103.036 130.927C103.183 130.826 103.29 130.779 103.361 130.747C103.387 130.736 103.416 130.723 103.425 130.717C103.496 130.664 103.413 130.263 103.382 130.112C103.313 129.773 103.252 129.48 103.463 129.35C103.614 129.257 103.82 129.314 104.092 129.525C104.177 129.591 104.242 129.662 104.293 129.725C104.323 129.67 104.371 129.62 104.447 129.598C104.629 129.545 104.818 129.695 105.011 130.045C105.059 130.132 105.123 130.249 105.158 130.415C105.175 130.493 105.181 130.564 105.185 130.624C105.22 130.624 105.258 130.631 105.298 130.651C105.415 130.709 105.475 130.837 105.469 131.034C105.466 131.251 105.431 131.43 105.401 131.588C105.374 131.726 105.352 131.845 105.362 131.938C105.382 132.109 105.524 132.237 105.709 132.386L106.176 132.757Z" fill="#F2F2F2"/>
<path d="M106.278 130.497L106.36 129.74L106.41 129.693C106.643 129.473 106.788 129.24 106.843 129C106.851 128.962 106.858 128.924 106.865 128.885C106.892 128.729 106.926 128.536 107.075 128.335C107.159 128.223 107.381 127.97 107.609 128.058C107.67 128.081 107.712 128.121 107.741 128.164C107.748 128.156 107.756 128.149 107.764 128.141C107.862 128.045 107.931 128.01 107.998 127.976C108.049 127.95 108.102 127.924 108.191 127.852C108.23 127.821 108.261 127.793 108.288 127.769C108.368 127.697 108.47 127.614 108.611 127.647C108.76 127.688 108.811 127.83 108.844 127.923C108.905 128.091 108.923 128.206 108.936 128.283C108.94 128.311 108.945 128.342 108.949 128.352C108.982 128.435 109.391 128.456 109.545 128.465C109.89 128.483 110.19 128.5 110.262 128.736C110.313 128.906 110.206 129.091 109.932 129.3C109.847 129.365 109.762 129.41 109.688 129.444C109.734 129.487 109.77 129.546 109.772 129.625C109.777 129.814 109.584 129.959 109.196 130.057C109.1 130.082 108.971 130.114 108.802 130.106C108.722 130.102 108.652 130.09 108.592 130.078C108.583 130.112 108.567 130.148 108.538 130.181C108.452 130.28 108.313 130.305 108.124 130.249C107.915 130.191 107.75 130.112 107.605 130.043C107.478 129.982 107.368 129.93 107.277 129.916C107.106 129.892 106.946 129.998 106.756 130.138L106.278 130.497Z" fill="#F2F2F2"/>
<path d="M103.837 144.992L103.704 144.861L103.519 144.841C103.52 144.824 103.519 144.783 103.518 144.72C103.511 144.372 103.488 143.313 103.636 141.685C103.739 140.549 103.911 139.396 104.147 138.257C104.384 137.116 104.63 136.268 104.828 135.585C104.976 135.071 105.127 134.583 105.274 134.108C105.665 132.838 106.035 131.638 106.264 130.27C106.316 129.964 106.422 129.328 106.204 128.578C106.078 128.143 105.861 127.733 105.56 127.361L105.851 127.125C106.183 127.537 106.423 127.991 106.563 128.474C106.805 129.306 106.689 129.999 106.633 130.332C106.4 131.724 106.027 132.935 105.631 134.218C105.485 134.691 105.335 135.177 105.187 135.69C104.991 136.365 104.747 137.207 104.514 138.333C104.28 139.458 104.11 140.597 104.008 141.719C103.863 143.326 103.885 144.369 103.892 144.712C103.895 144.895 103.896 144.933 103.837 144.992Z" fill="#F2F2F2"/>
<path d="M104.762 127.791C104.747 127.788 104.732 127.784 104.717 127.78C104.41 127.694 104.163 127.443 103.984 127.036C103.901 126.844 103.881 126.643 103.842 126.241C103.835 126.179 103.808 125.865 103.842 125.45C103.863 125.178 103.893 125.069 103.967 124.983C104.049 124.888 104.159 124.833 104.276 124.806C104.279 124.77 104.291 124.735 104.314 124.701C104.411 124.563 104.571 124.62 104.659 124.649C104.703 124.665 104.758 124.685 104.819 124.696C104.916 124.712 104.974 124.695 105.062 124.67C105.145 124.646 105.25 124.615 105.394 124.618C105.678 124.622 105.888 124.75 105.958 124.792C106.323 125.011 106.449 125.362 106.595 125.767C106.624 125.848 106.72 126.142 106.743 126.521C106.759 126.794 106.723 126.905 106.682 126.985C106.598 127.149 106.47 127.226 106.152 127.386C105.819 127.554 105.652 127.638 105.515 127.681C105.197 127.781 104.997 127.844 104.762 127.791Z" fill="#F2F2F2"/>
<path d="M19.4479 133.875C19.3712 133.641 18.7898 133.744 18.7339 133.534C18.6783 133.325 19.2363 133.149 19.6642 132.56C19.7413 132.453 20.2276 131.783 20.0411 131.502C19.6876 130.967 17.2279 132.298 16.6375 131.551C16.508 131.387 16.4547 131.106 16.0687 130.583C15.9151 130.374 15.8166 130.274 15.6989 130.277C15.5318 130.281 15.4721 130.49 15.2096 130.868C14.8159 131.436 14.6738 131.365 14.4145 131.83C14.2219 132.175 14.1991 132.396 14.0603 132.409C13.8638 132.427 13.7826 131.997 13.5426 131.981C13.2976 131.964 13.0525 132.388 12.931 132.72C12.7029 133.343 12.8441 133.819 12.8754 134.293C12.9095 134.809 12.8296 135.563 12.2695 136.532L6.98633 144.949C8.12093 143.233 11.3416 138.554 12.6392 136.838C13.0138 136.342 13.4164 135.845 14.036 135.751C14.6325 135.661 15.3583 135.956 16.3714 135.939C16.4897 135.937 16.819 135.927 16.8991 135.753C16.9653 135.608 16.8009 135.483 16.8607 135.347C16.9409 135.165 17.3019 135.244 17.7938 135.123C18.1406 135.037 18.3762 134.897 18.5789 134.776C18.64 134.739 19.5501 134.188 19.4479 133.875Z" fill="#F2F2F2"/>
<path d="M5.61023 135.841C5.47288 135.811 5.35584 136.126 5.23668 136.093C5.11794 136.059 5.19282 135.735 5.02691 135.355C4.99699 135.286 4.80844 134.854 4.6163 134.865C4.25213 134.884 4.19542 136.475 3.65863 136.549C3.54083 136.566 3.38739 136.511 3.01909 136.549C2.87257 136.564 2.7948 136.584 2.7623 136.642C2.71618 136.726 2.80149 136.815 2.91151 137.053C3.07652 137.41 3.00055 137.459 3.15399 137.721C3.26789 137.915 3.36958 137.99 3.3359 138.062C3.28825 138.163 3.05385 138.079 2.9764 138.192C2.89737 138.308 3.03511 138.551 3.16292 138.706C3.40277 138.997 3.67712 139.066 3.91897 139.187C4.1818 139.319 4.52913 139.576 4.84289 140.13L7.44982 145.152C6.93499 144.1 5.56768 141.169 5.09968 140.037C4.96458 139.71 4.83655 139.369 4.96939 139.038C5.09727 138.719 5.45154 138.448 5.73542 137.946C5.76858 137.887 5.85878 137.723 5.79624 137.633C5.74453 137.559 5.63551 137.604 5.58621 137.535C5.52007 137.443 5.66252 137.289 5.74514 137.012C5.8034 136.818 5.8023 136.661 5.80135 136.527C5.80107 136.486 5.79308 135.881 5.61023 135.841Z" fill="#F2F2F2"/>
<path d="M8.21094 137.066L8.29288 136.309L8.34314 136.262C8.57566 136.042 8.72112 135.809 8.77569 135.57C8.78437 135.531 8.79109 135.493 8.79797 135.454C8.82519 135.298 8.85897 135.105 9.00852 134.904C9.09222 134.792 9.31362 134.539 9.54196 134.627C9.60359 134.651 9.64519 134.69 9.67409 134.733C9.68134 134.725 9.68877 134.718 9.69672 134.71C9.79536 134.614 9.86436 134.579 9.93082 134.545C9.9819 134.519 10.0346 134.493 10.1239 134.421C10.163 134.39 10.1944 134.362 10.2208 134.338C10.3009 134.267 10.4034 134.183 10.5438 134.216C10.6926 134.257 10.7436 134.399 10.7775 134.493C10.8379 134.66 10.8565 134.775 10.8689 134.852C10.8733 134.88 10.8784 134.911 10.8823 134.922C10.9149 135.004 11.3238 135.025 11.4776 135.034C11.8234 135.052 12.1227 135.069 12.1946 135.305C12.2463 135.475 12.1386 135.66 11.8656 135.869C11.7805 135.934 11.6954 135.979 11.6213 136.013C11.6669 136.056 11.7032 136.115 11.7054 136.195C11.7104 136.383 11.5167 136.528 11.1295 136.626C11.0333 136.651 10.9039 136.683 10.7346 136.675C10.6549 136.671 10.585 136.659 10.5254 136.647C10.5166 136.681 10.5003 136.717 10.4709 136.75C10.3848 136.849 10.2456 136.874 10.0567 136.818C9.8482 136.76 9.68344 136.681 9.53806 136.612C9.41107 136.551 9.30158 136.499 9.2097 136.485C9.03882 136.461 8.87948 136.567 8.68878 136.707L8.21094 137.066Z" fill="#F2F2F2"/>
<path d="M9.57491 132.757L8.82232 132.869L8.7636 132.833C8.49205 132.664 8.22996 132.582 7.98434 132.59C7.94529 132.591 7.90631 132.595 7.8666 132.598C7.70924 132.611 7.51362 132.627 7.28141 132.534C7.15193 132.481 6.85113 132.331 6.87867 132.088C6.88538 132.022 6.91347 131.972 6.94712 131.933C6.93816 131.928 6.92919 131.923 6.91948 131.917C6.80175 131.846 6.75028 131.788 6.70071 131.732C6.66259 131.69 6.62331 131.645 6.53163 131.577C6.49142 131.547 6.45622 131.524 6.42663 131.505C6.3371 131.445 6.23007 131.367 6.22656 131.223C6.22816 131.069 6.35253 130.983 6.43484 130.927C6.58165 130.826 6.68842 130.779 6.75925 130.747C6.78514 130.736 6.81426 130.723 6.82316 130.717C6.8943 130.664 6.81113 130.263 6.78069 130.112C6.71113 129.773 6.65093 129.48 6.86173 129.35C7.01249 129.257 7.2185 129.314 7.4905 129.525C7.57515 129.591 7.64026 129.662 7.69156 129.725C7.72168 129.67 7.76916 129.62 7.8458 129.598C8.02728 129.545 8.21666 129.695 8.40939 130.045C8.45754 130.132 8.5218 130.249 8.55681 130.415C8.57322 130.493 8.57913 130.564 8.5832 130.624C8.61828 130.624 8.65653 130.631 8.69636 130.651C8.81362 130.709 8.87318 130.837 8.86731 131.034C8.864 131.251 8.82935 131.43 8.79903 131.588C8.77272 131.726 8.75045 131.845 8.76009 131.938C8.78032 132.109 8.92279 132.237 9.10699 132.386L9.57491 132.757Z" fill="#F2F2F2"/>
<path d="M9.67627 130.497L9.75821 129.74L9.80847 129.693C10.041 129.473 10.1865 129.24 10.241 129C10.2497 128.962 10.2564 128.924 10.2633 128.885C10.2905 128.729 10.3243 128.536 10.4739 128.335C10.5575 128.223 10.779 127.97 11.0073 128.058C11.0689 128.081 11.1105 128.121 11.1394 128.164C11.1467 128.156 11.1541 128.149 11.1621 128.141C11.2607 128.045 11.3297 128.01 11.3962 127.976C11.4472 127.95 11.5 127.924 11.5892 127.852C11.6284 127.821 11.6597 127.793 11.6861 127.769C11.7663 127.697 11.8687 127.614 12.0091 127.647C12.1579 127.688 12.209 127.83 12.2428 127.923C12.3033 128.091 12.3219 128.206 12.3342 128.283C12.3386 128.311 12.3438 128.342 12.3477 128.352C12.3802 128.435 12.7891 128.456 12.943 128.465C13.2888 128.483 13.588 128.5 13.66 128.736C13.7116 128.906 13.604 129.091 13.3309 129.3C13.2458 129.365 13.1608 129.41 13.0867 129.444C13.1322 129.487 13.1686 129.546 13.1708 129.625C13.1758 129.814 12.982 129.959 12.5949 130.057C12.4987 130.082 12.3693 130.114 12.1999 130.106C12.1202 130.102 12.0503 130.09 11.9908 130.078C11.9819 130.112 11.9656 130.148 11.9363 130.181C11.8501 130.28 11.7109 130.305 11.5221 130.249C11.3135 130.191 11.1488 130.112 11.0034 130.043C10.8764 129.982 10.7669 129.93 10.675 129.916C10.5042 129.892 10.3448 129.998 10.1541 130.138L9.67627 130.497Z" fill="#F2F2F2"/>
<path d="M7.2358 144.992L7.10274 144.861L6.9178 144.841C6.91868 144.824 6.91747 144.783 6.91611 144.72C6.909 144.372 6.88691 143.313 7.0344 141.685C7.13739 140.549 7.30949 139.396 7.54592 138.257C7.78275 137.116 8.02854 136.268 8.22595 135.585C8.37493 135.071 8.52531 134.583 8.6721 134.108C9.06385 132.838 9.43374 131.638 9.6628 130.27C9.7141 129.964 9.82056 129.328 9.6026 128.578C9.47613 128.143 9.2596 127.733 8.95881 127.361L9.24994 127.125C9.58186 127.537 9.8213 127.991 9.96175 128.474C10.2034 129.306 10.0874 129.999 10.0317 130.332C9.79855 131.724 9.42497 132.935 9.02937 134.218C8.88332 134.691 8.73343 135.177 8.5851 135.69C8.38947 136.365 8.14589 137.207 7.91215 138.333C7.67838 139.458 7.50849 140.597 7.40664 141.719C7.2611 143.326 7.28297 144.369 7.29013 144.712C7.29383 144.895 7.29462 144.933 7.2358 144.992Z" fill="#F2F2F2"/>
<path d="M8.16026 127.791C8.14529 127.788 8.13023 127.784 8.11514 127.78C7.8081 127.694 7.5618 127.443 7.3829 127.036C7.29916 126.844 7.27939 126.643 7.23998 126.241C7.23379 126.179 7.20647 125.865 7.24006 125.45C7.26192 125.178 7.29111 125.069 7.36503 124.983C7.44711 124.888 7.55769 124.833 7.67455 124.806C7.67771 124.77 7.68948 124.735 7.71282 124.701C7.80895 124.563 7.96987 124.62 8.05718 124.649C8.10117 124.665 8.15599 124.685 8.21765 124.696C8.31455 124.712 8.37242 124.695 8.46 124.67C8.54381 124.646 8.64802 124.615 8.79205 124.618C9.07626 124.622 9.28665 124.75 9.35603 124.792C9.72141 125.011 9.84756 125.362 9.99355 125.767C10.0226 125.848 10.1188 126.142 10.1412 126.521C10.1574 126.794 10.1217 126.905 10.0806 126.985C9.99687 127.149 9.86858 127.226 9.5502 127.386C9.21757 127.554 9.05068 127.638 8.91384 127.681C8.59543 127.781 8.39548 127.844 8.16026 127.791Z" fill="#F2F2F2"/>
<path d="M89.3898 0H29.5335C25.4507 0 22.1411 3.30959 22.1411 7.39241V137.348C22.1411 141.431 25.4507 144.74 29.5335 144.74H89.3898C93.4726 144.74 96.7822 141.431 96.7822 137.348V7.39241C96.7822 3.30959 93.4726 0 89.3898 0ZM86.8859 133.904C86.8859 136.932 84.4297 139.386 81.4017 139.386H38.1714C35.1434 139.386 32.6893 136.932 32.6893 133.904V18.6251C32.6893 15.5971 35.1434 13.143 38.1714 13.143H81.4017C84.4297 13.143 86.8859 15.5971 86.8859 18.6251V133.904Z" fill="#E6E6E6"/>
<path d="M84.2885 70.5855C85.3639 70.5855 86.2357 69.7137 86.2357 68.6383C86.2357 67.5629 85.3639 66.6912 84.2885 66.6912C83.2131 66.6912 82.3413 67.5629 82.3413 68.6383C82.3413 69.7137 83.2131 70.5855 84.2885 70.5855Z" fill="#E6E6E6"/>
<path d="M84.3349 78.1792C85.4103 78.1792 86.2821 77.3074 86.2821 76.232C86.2821 75.1566 85.4103 74.2848 84.3349 74.2848C83.2595 74.2848 82.3877 75.1566 82.3877 76.232C82.3877 77.3074 83.2595 78.1792 84.3349 78.1792Z" fill="#E6E6E6"/>
<path d="M52.2828 20.3644H41.9771C40.435 20.3644 39.1787 21.6185 39.1787 23.1606V90.5847C39.1787 92.129 40.435 93.3831 41.9771 93.3831H52.2828C52.7983 93.3831 53.2813 93.2423 53.6971 92.9998C54.204 92.703 54.6068 92.2503 54.8451 91.7088C54.9967 91.3645 55.0812 90.9854 55.0812 90.5847V23.1606C55.0812 21.6185 53.8271 20.3644 52.2828 20.3644ZM54.4314 90.5847C54.4314 91.1652 54.1996 91.6937 53.8206 92.0814L53.8184 92.0836C53.7794 92.1247 53.7404 92.1637 53.6971 92.2005C53.3181 92.5319 52.8242 92.7334 52.2828 92.7334H41.9771C40.7923 92.7334 39.8285 91.7695 39.8285 90.5847V23.1606C39.8285 21.9759 40.7923 21.012 41.9771 21.012H52.2828C53.4675 21.012 54.4314 21.9759 54.4314 23.1606L54.4314 90.5847Z" fill="#E6E6E6"/>
<path d="M76.9485 20.3644H66.6407C65.0985 20.3644 63.8423 21.6185 63.8423 23.1606V90.5847C63.8423 92.129 65.0985 93.3831 66.6407 93.3831H76.9485C78.4906 93.3831 79.7447 92.129 79.7447 90.5847V23.1606C79.7447 21.6185 78.4906 20.3644 76.9485 20.3644ZM79.0971 90.5847C79.0971 91.7695 78.1333 92.7334 76.9485 92.7334H66.6407C65.4559 92.7334 64.4921 91.7695 64.4921 90.5847V23.1606C64.4921 21.9759 65.4559 21.012 66.6407 21.012H76.9485C78.1333 21.012 79.0971 21.9759 79.0971 23.1606V90.5847Z" fill="#E6E6E6"/>
<path d="M47.9136 103.087L45.0221 103.074V103.444H53.4195C53.5126 103.444 53.6057 103.45 53.6967 103.461V103.115L47.9136 103.087ZM54.7277 103.119C54.4158 102.952 54.0671 102.844 53.6967 102.809C53.6057 102.799 53.5126 102.794 53.4195 102.794H43.1117C42.6871 102.794 42.2864 102.889 41.9269 103.058C40.976 103.507 40.3154 104.475 40.3154 105.593V127.906C40.3154 129.448 41.5695 130.705 43.1117 130.705H53.4195C53.5126 130.705 53.6057 130.7 53.6967 130.69C55.1089 130.551 56.2157 129.355 56.2157 127.906V105.593C56.2157 104.523 55.6114 103.591 54.7277 103.119ZM55.5681 127.906C55.5681 128.998 54.7515 129.901 53.6967 130.038C53.6057 130.048 53.5126 130.055 53.4195 130.055H43.1117C41.9269 130.055 40.963 129.091 40.963 127.906V105.593C40.963 104.408 41.9269 103.444 43.1117 103.444H53.4195C53.5126 103.444 53.6057 103.45 53.6967 103.461C54.7515 103.598 55.5681 104.501 55.5681 105.593V127.906ZM53.4195 102.794H47.9136V103.444H53.4195C53.5126 103.444 53.6057 103.45 53.6967 103.461V102.809C53.6057 102.799 53.5126 102.794 53.4195 102.794Z" fill="#E6E6E6"/>
<path d="M67.9594 103.182V103.444H72.3368V103.204L67.9594 103.182ZM79.5905 103.236C79.2418 103.013 78.839 102.863 78.4079 102.814C78.3018 102.801 78.1935 102.794 78.083 102.794H67.7752C67.2619 102.794 66.7832 102.933 66.3695 103.175C65.5378 103.661 64.979 104.564 64.979 105.593V127.906C64.979 129.448 66.2331 130.705 67.7752 130.705H78.083C79.6252 130.705 80.8815 129.448 80.8815 127.906V105.593C80.8815 104.605 80.366 103.734 79.5905 103.236ZM80.2317 127.906C80.2317 129.091 79.2678 130.055 78.083 130.055H67.7752C66.5905 130.055 65.6288 129.091 65.6288 127.906V105.593C65.6288 104.408 66.5905 103.444 67.7752 103.444H78.083C79.2678 103.444 80.2317 104.408 80.2317 105.593V127.906Z" fill="#E6E6E6"/>
<path d="M71.6622 91.5616C72.2385 92.9664 73.4304 93.8077 74.3244 93.4408C75.2183 93.0738 75.4756 91.6378 74.8989 90.2326C74.6762 89.6682 74.3216 89.1652 73.8647 88.7659L71.3477 82.8447L68.5942 84.0851L71.3679 89.7907C71.3232 90.396 71.4241 91.0033 71.6622 91.5616Z" fill="#FFB6B6"/>
<path d="M65.7132 54.2768L67.1563 53.6996C68.8549 56.3418 69.7893 59.4024 69.8561 62.5428L70.0425 71.3055L74.0832 86.3137L69.4653 88.0455L63.6929 69.2851L65.7132 54.2768Z" fill="#2F2E41"/>
<path d="M68.6899 96.152C68.5083 96.152 68.3242 96.1247 68.1432 96.0683L63.2319 94.5339C62.6637 94.3562 62.2314 93.93 62.0461 93.3642C61.8607 92.7984 61.9569 92.1989 62.3099 91.7194L76.0234 73.1012C76.3577 72.6471 76.8727 72.3777 77.4363 72.3618C78.0034 72.3448 78.5293 72.5859 78.8886 73.0204L81.6836 76.3987C82.2005 77.0233 82.2394 77.9252 81.7784 78.5921L70.1813 95.3664C69.8341 95.8688 69.2748 96.152 68.6899 96.152Z" fill="#6C63FF"/>
<path d="M79.6785 79.4276C79.6203 79.4276 79.5624 79.4043 79.5198 79.3582L76.5642 76.1724C76.4828 76.0848 76.488 75.9477 76.5756 75.8664C76.6632 75.785 76.8005 75.7899 76.8817 75.8778L79.8373 79.0638C79.9187 79.1514 79.9135 79.2884 79.8258 79.3699C79.7842 79.4086 79.7313 79.4276 79.6785 79.4276Z" fill="white"/>
<path d="M78.3787 81.3769C78.3205 81.3769 78.2626 81.3537 78.22 81.3076L75.2644 78.1218C75.183 78.0341 75.1881 77.897 75.2758 77.8157C75.3635 77.7344 75.5006 77.7392 75.5819 77.8271L78.5375 81.0131C78.6189 81.1007 78.6137 81.2378 78.526 81.3192C78.4844 81.3579 78.4315 81.3769 78.3787 81.3769Z" fill="white"/>
<path d="M76.8631 83.543C76.8049 83.543 76.747 83.5197 76.7043 83.4736L73.7488 80.2877C73.6673 80.2001 73.6725 80.0631 73.7602 79.9816C73.8479 79.9004 73.9849 79.9053 74.0663 79.9933L77.0218 83.1792C77.1033 83.2667 77.0981 83.4038 77.0104 83.4852C76.9687 83.5239 76.9159 83.543 76.8631 83.543Z" fill="white"/>
<path d="M75.347 85.4923C75.2888 85.4923 75.2308 85.469 75.1882 85.4229L72.2327 82.237C72.1512 82.1495 72.1564 82.0124 72.2441 81.931C72.3317 81.8497 72.4688 81.8546 72.5502 81.9426L75.5057 85.1285C75.5871 85.2161 75.582 85.3531 75.4943 85.4346C75.4526 85.4733 75.3997 85.4923 75.347 85.4923Z" fill="white"/>
<path d="M73.8304 87.4416C73.7722 87.4416 73.7142 87.4183 73.6716 87.3722L70.7161 84.1863C70.6346 84.0988 70.6398 83.9617 70.7275 83.8803C70.8151 83.7988 70.9522 83.8039 71.0336 83.8919L73.9891 87.0778C74.0705 87.1654 74.0654 87.3024 73.9777 87.3839C73.936 87.4226 73.8831 87.4416 73.8304 87.4416Z" fill="white"/>
<path d="M72.0979 89.1744C72.0398 89.1744 71.9818 89.1511 71.9392 89.105L68.9836 85.9191C68.9022 85.8315 68.9074 85.6945 68.9951 85.613C69.0826 85.5316 69.2199 85.5367 69.3011 85.6247L72.2567 88.8106C72.3381 88.8982 72.3329 89.0352 72.2453 89.1167C72.2036 89.1554 72.1507 89.1744 72.0979 89.1744Z" fill="white"/>
<path d="M62.0573 142.963L65.3342 141.975L63.0816 128.864L58.2451 130.323L62.0573 142.963Z" fill="#FFB6B6"/>
<path d="M73.2622 139.503C73.4161 139.644 73.6371 140.183 73.6974 140.382C73.8826 140.997 73.5348 141.645 72.9205 141.83L62.7719 144.89C62.3529 145.017 61.9107 144.779 61.7843 144.36L61.6569 143.938C61.6569 143.938 60.772 142.819 61.3336 140.942C61.3336 140.942 62.9878 141.781 64.3286 139.282L64.5854 138.086L69.5866 139.847L71.9422 139.442C72.4575 139.353 72.8768 139.15 73.2622 139.503Z" fill="#2F2E41"/>
<path d="M48.1069 136.116L50.7092 138.34L60.5243 129.361L56.6838 126.079L48.1069 136.116Z" fill="#FFB6B6"/>
<path d="M57.0722 143.676C57.0366 143.882 56.703 144.359 56.5674 144.517C56.1506 145.005 55.4173 145.063 54.9295 144.646L46.8714 137.759C46.5387 137.475 46.4994 136.975 46.7838 136.642L47.0705 136.306C47.0705 136.306 47.5336 134.957 49.4164 134.416C49.4164 134.416 49.6048 136.261 52.4316 136.039L53.5769 135.609L54.7969 140.769L56.4106 142.532C56.7636 142.918 57.1614 143.161 57.0722 143.676Z" fill="#2F2E41"/>
<path d="M61.3299 47.9209C64.3545 47.9209 66.8064 45.469 66.8064 42.4444C66.8064 39.4199 64.3545 36.968 61.3299 36.968C58.3054 36.968 55.8535 39.4199 55.8535 42.4444C55.8535 45.469 58.3054 47.9209 61.3299 47.9209Z" fill="#FFB6B6"/>
<path d="M56.9104 47.783L64.126 50.0919L64.9918 52.6895L64.7032 62.5026L55.1787 51.2464L56.9104 47.783Z" fill="#6C63FF"/>
<path d="M69.7537 53.6997L64.4133 50.9551V60.53L56.2228 49.1575L54.4568 50.9578L46.9526 56.0087L51.8592 70.7283V77.9439L47.8185 89.4887L61.9609 97.2815L71.4854 91.7977L68.5992 71.5942L70.6195 56.2973L69.7537 53.6997Z" fill="#2F2E41"/>
<path d="M67.7335 90.9317L73.5059 112.578L56.1887 134.802L51.8594 130.473L64.4144 110.991L53.3025 89.7772L67.7335 90.9317Z" fill="#2F2E41"/>
<path d="M49.8389 88.9115L55.8999 112.578L59.219 135.635L65.796 134.802L63.6927 109.692L59.9406 88.3342L49.8389 88.9115Z" fill="#2F2E41"/>
<path d="M60.0849 46.6286V43.8651L61.8166 41.4334L61.2393 40.3198L60.9507 38.9017C60.9507 38.9017 64.7028 40.4312 66.1459 40.2107C67.589 39.9903 66.7231 39.9176 67.1561 39.6653C67.589 39.413 68.4549 38.254 67.1561 37.1018C65.8573 35.9496 66.864 35.661 64.196 35.9496C61.528 36.2382 58.0645 36.2382 57.4873 37.1041C56.91 37.9699 56.91 38.5472 56.91 38.5472C56.91 38.5472 53.4466 38.8358 56.0442 45.1855L57.4873 48.3603L58.0645 47.2058C58.0645 47.2058 57.4873 44.031 58.3531 45.1855C59.219 46.3399 60.0849 46.6286 60.0849 46.6286Z" fill="#2F2E41"/>
<path d="M65.9171 61.0533L62.7997 53.9982C62.7491 53.8837 62.749 53.7523 62.7995 53.6378C62.85 53.5231 62.9471 53.4345 63.0658 53.3945L68.8746 51.4407C68.9919 51.4012 69.1216 51.4125 69.2303 51.4717C69.3391 51.5308 69.419 51.6335 69.4496 51.7534L71.3635 59.2447C71.4214 59.4714 71.2927 59.7062 71.0705 59.7793L66.4653 61.297C66.4186 61.3124 66.3712 61.3198 66.3245 61.3198C66.1521 61.3198 65.9905 61.2195 65.9171 61.0533Z" fill="#F2F2F2"/>
<path d="M62.5364 53.3266C62.6124 53.2862 62.7145 53.2329 62.8378 53.1706C62.778 53.1209 62.7336 53.0514 62.717 52.9684L62.6018 52.3921C62.5719 52.2425 62.6407 52.0908 62.7733 52.0153C63.5631 51.5659 66.3127 50.1012 68.4531 50.1902C68.587 50.1957 68.7054 50.279 68.7593 50.4017L69.0068 50.9662C69.0374 51.0359 69.0434 51.1097 69.0294 51.1785C69.1961 51.1581 69.3632 51.1402 69.5307 51.1267C69.6357 51.1183 69.7356 51.1735 69.7861 51.266L69.9126 51.4979C69.9928 51.645 69.92 51.8289 69.7607 51.8812L62.7955 54.1657C62.637 54.2177 62.47 54.114 62.4464 53.9488L62.3968 53.6014C62.3808 53.4895 62.4366 53.3798 62.5364 53.3266Z" fill="#3F3D56"/>
<path d="M66.6387 58.6279C67.7888 57.6365 68.2094 56.2395 67.5784 55.5077C66.9473 54.7759 65.5037 54.9864 64.3534 55.9783C63.8885 56.3683 63.5236 56.8639 63.2895 57.4237L58.4697 61.6858L60.518 63.9049L65.052 59.4676C65.6404 59.3184 66.1845 59.0305 66.6387 58.6279Z" fill="#FFB6B6"/>
<path d="M55.4995 77.4065L54.3983 92.702C54.331 93.6381 53.6159 94.3965 52.6861 94.5245C48.1568 95.1479 43.1385 94.517 37.7367 92.9026C36.8062 92.6245 36.2225 91.7021 36.3545 90.74L38.435 75.5788C38.5516 74.7291 39.2014 74.0485 40.0456 73.8972C44.4416 73.1097 49.1902 73.8703 54.1074 75.3706C54.989 75.6396 55.5657 76.4872 55.4995 77.4065Z" fill="#6C63FF"/>
<path d="M48.9561 67.9227C51.2843 68.0217 51.9272 73.6252 51.9793 75.7756L52.5563 75.7617C52.5481 75.4241 52.3179 67.4907 48.9807 67.3458" fill="#3F3D56"/>
<path d="M50.1278 56.2973L46.953 56.0087L44.1687 69.2874C43.6382 71.8176 45.2968 74.2879 47.8395 74.7546L50.1278 75.1747L66.0019 63.2242L62.3264 57.6319L51.5709 64.3787L50.1278 56.2973Z" fill="#2F2E41"/>
<path d="M51.8673 63.3051C48.5791 63.1643 43.1026 74.02 43.0063 74.3223L43.5564 74.4978C43.5787 74.4277 48.9923 63.7598 51.8427 63.882" fill="#3F3D56"/>
<path d="M0 144.884C0 145.027 0.200412 145.142 0.44998 145.142H113.896C114.146 145.142 114.346 145.027 114.346 144.884C114.346 144.741 114.146 144.626 113.896 144.626H0.44998C0.200412 144.626 0 144.741 0 144.884Z" fill="#CCCCCC"/>
</g>
<defs>
<clipPath id="clip0_71_1031">
<rect width="116.685" height="145.152" fill="white"/>
</clipPath>
</defs>
</svg>
