<svg width="144" height="144" viewBox="0 0 144 144" fill="none" xmlns="http://www.w3.org/2000/svg">
<g clip-path="url(#clip0_100_1882)">
<path d="M117.411 70.3425L125.066 62.0241L118.801 57.0859L115.707 63.9211L101.665 68.555C101.192 68.2832 100.65 68.1548 100.105 68.1855C99.5601 68.2162 99.0358 68.4046 98.5961 68.7278C98.1565 69.051 97.8204 69.495 97.629 70.0057C97.4376 70.5164 97.3991 71.0717 97.5181 71.6039C97.6372 72.1361 97.9087 72.6221 98.2995 73.0029C98.6903 73.3836 99.1835 73.6425 99.7191 73.748C100.255 73.8535 100.809 73.8011 101.316 73.5971C101.822 73.3931 102.258 73.0464 102.57 72.5992L117.411 70.3425Z" fill="#FFB6B6"/>
<path d="M131.443 51.5479C132.831 54.6387 124.365 63.4688 124.365 63.4688C122.05 65.3393 121.683 70.021 118.813 70.5422C111.072 71.9482 115.887 70.4769 113.887 71.2452C112.005 71.9682 113.738 65.78 112.479 65.3866C111.759 65.1617 115.764 62.5745 115.764 62.5745C115.764 62.5745 119.372 55.505 121.591 51.838C122.199 50.7896 123.063 49.912 124.102 49.2868C125.14 48.6616 126.321 48.3091 127.533 48.2622C127.533 48.2622 130.056 48.457 131.443 51.5479Z" fill="#9747FF"/>
<path d="M95.6037 143.431H7.64471C5.55992 143.429 3.56118 142.601 2.08701 141.128C0.612831 139.655 -0.216395 137.659 -0.21875 135.576V8.14636C-0.216396 6.0637 0.612831 4.06701 2.08701 2.59435C3.56118 1.12168 5.55992 0.293307 7.64471 0.290955H95.6037C97.6885 0.293307 99.6873 1.12168 101.161 2.59435C102.636 4.06701 103.465 6.0637 103.467 8.14636V135.576C103.465 137.659 102.636 139.655 101.161 141.128C99.6873 142.601 97.6885 143.429 95.6037 143.431Z" fill="#3F3D56"/>
<path d="M95.7582 138.42H7.48955C6.84689 138.419 6.23076 138.163 5.77633 137.71C5.3219 137.256 5.06628 136.64 5.06555 135.998V7.72443C5.06629 7.08243 5.32191 6.46693 5.77634 6.01297C6.23077 5.55901 6.84689 5.30365 7.48955 5.30292H95.7582C96.4009 5.30365 97.017 5.55901 97.4714 6.01297C97.9259 6.46693 98.1815 7.08243 98.1822 7.72443V135.998C98.1815 136.64 97.9259 137.256 97.4714 137.71C97.017 138.163 96.4009 138.419 95.7582 138.42Z" fill="#92C7EF"/>
<path d="M11.7958 64.3276C12.0422 60.9853 12.4491 56.8764 15.7593 55.0908C17.3213 54.2483 18.9752 54.5464 20.5456 55.2031C22.063 55.8377 23.4926 56.5941 25.1269 56.8925C27.9442 57.3781 30.8431 56.9438 33.3939 55.654C35.9631 54.3778 38.0243 52.2704 39.242 49.6749C39.8688 48.3549 40.3867 46.9243 41.3101 45.7722C41.7747 45.1674 42.3906 44.6954 43.0958 44.4039C43.801 44.1123 44.5707 44.0115 45.3273 44.1115C48.7982 44.5395 51.1016 47.5777 53.8687 49.3662C55.1995 50.2264 56.7276 50.8544 58.339 50.7774C59.9918 50.6984 61.49 49.9168 62.7567 48.8964C65.4442 46.7313 66.9137 43.383 69.7343 41.3655C71.0715 40.4328 72.6233 39.8534 74.2451 39.6812C75.8669 39.5091 77.506 39.7497 79.0096 40.3808C81.9003 41.6265 83.9471 44.4177 84.4878 47.4894C84.6173 48.2462 84.6508 49.0163 84.5873 49.7814C84.5521 50.2326 85.256 50.2303 85.2911 49.7814C85.3966 48.1895 85.1324 46.5947 84.5189 45.1216C83.9055 43.6485 82.9595 42.337 81.7549 41.2895C79.2594 39.1389 75.7731 38.44 72.6021 39.2675C70.9874 39.6952 69.5035 40.5146 68.2821 41.653C66.9775 42.8549 65.9486 44.3112 64.8473 45.6916C63.773 47.0382 62.5878 48.3387 61.0799 49.2085C60.358 49.648 59.5489 49.9252 58.7088 50.0206C57.8688 50.116 57.018 50.0275 56.2157 49.761C54.588 49.2125 53.209 48.0825 51.9067 47.0006C50.5643 45.8852 49.2283 44.7693 47.6148 44.0607C46.1145 43.4018 44.3941 43.0822 42.8324 43.7311C41.4244 44.3161 40.4925 45.5305 39.8018 46.844C39.1007 48.1772 38.6014 49.6148 37.7833 50.8862C36.9921 52.103 35.9767 53.1587 34.7911 53.9971C32.3829 55.716 29.4547 56.5518 26.501 56.3633C24.8962 56.2494 23.437 55.7429 21.9838 55.0792C20.3799 54.3467 18.6906 53.5849 16.8859 53.9398C15.3291 54.2459 14.0194 55.3025 13.1101 56.5646C12.0602 58.0218 11.5989 59.8083 11.3581 61.5628C11.2322 62.4807 11.1602 63.404 11.0921 64.3277C11.0588 64.779 11.7627 64.7769 11.7958 64.3276Z" fill="#E4E4E4"/>
<path d="M136.194 140.045L132.852 140.045L131.262 127.169L136.194 127.169L136.194 140.045Z" fill="#FFB6B6"/>
<path d="M136.104 138.954L132.539 137.507L132.434 137.464L130.465 138.954C129.384 138.954 128.346 139.37 127.565 140.117C126.785 140.863 126.323 141.882 126.276 142.96C126.271 143.019 126.271 143.081 126.271 143.143V143.281H137.046V138.954H136.104Z" fill="#2F2E41"/>
<path d="M128.368 136.938L125.216 138.046L119.438 126.427L124.09 124.792L128.368 136.938Z" fill="#FFB6B6"/>
<path d="M127.922 135.939L124.077 135.756L123.964 135.75L122.602 137.809C121.582 138.167 120.741 138.904 120.253 139.867C119.765 140.83 119.668 141.944 119.982 142.977C119.996 143.034 120.017 143.093 120.037 143.151L120.083 143.281L130.247 139.708L128.809 135.627L127.922 135.939Z" fill="#2F2E41"/>
<path d="M137.374 84.5266C140.432 84.4081 136.645 108.746 136.645 108.746C136.645 108.746 137.752 130.113 137.518 131.234C137.283 132.356 137.488 135.38 137.488 135.38C136.889 134.291 130.71 135.113 130.71 135.113L129.869 113.457L125.577 96.1058L119.627 107.737L125.33 125.589C125.33 125.589 127.639 127.724 127.394 128.568C127.148 129.411 121.099 131.314 119.987 131.357C118.875 131.4 119.377 129.991 119.323 128.602C119.269 127.214 114.038 114.348 112.198 109.971C110.358 105.593 111.789 99.4205 112.728 94.9352C113.667 90.4499 118.608 82.0326 118.608 82.0326C124.742 75.1216 134.317 84.645 137.374 84.5266Z" fill="#2F2E41"/>
<path d="M128.819 44.0913C132.04 44.0913 134.65 41.4834 134.65 38.2664C134.65 35.0493 132.04 32.4414 128.819 32.4414C125.599 32.4414 122.988 35.0493 122.988 38.2664C122.988 41.4834 125.599 44.0913 128.819 44.0913Z" fill="#FFB6B6"/>
<path d="M125.904 47.9411C124.648 48.6872 123.896 50.0579 123.465 51.4528C122.666 54.0352 122.185 56.7052 122.033 59.4038L120.374 75.5043L117.171 83.4311C124.02 82.8373 139.208 85.625 139.208 85.625C139.208 85.625 139.772 85.4371 139.208 84.8734C138.644 84.3097 138.094 84.8091 138.658 84.2454C139.223 83.6817 138.834 84.3097 138.646 83.746C138.458 83.1822 138.646 83.5581 138.834 83.3702C139.022 83.1822 137.378 81.4911 137.378 81.4911L138.882 71.6167L140.763 51.6991C138.506 48.8806 133.967 47.2191 133.967 47.2191L132.794 45.11L126.929 45.5787L125.904 47.9411Z" fill="#9747FF"/>
<path d="M142.972 70.2091L141.525 61.6883L136.49 62.5998L136.932 70.0529L134.728 85.5667C134.215 85.7522 133.767 86.0828 133.438 86.5184C133.11 86.954 132.915 87.4756 132.878 88.0196C132.842 88.5637 132.964 89.1067 133.231 89.5825C133.498 90.0582 133.897 90.4462 134.381 90.699C134.865 90.9518 135.411 91.0585 135.955 91.0062C136.498 90.9539 137.014 90.7448 137.441 90.4044C137.867 90.064 138.185 89.607 138.356 89.0892C138.527 88.5713 138.544 88.0149 138.404 87.4879L142.972 70.2091Z" fill="#FFB6B6"/>
<path d="M138.812 50.2709C142.071 51.2081 143.355 63.3673 143.355 63.3673C144.831 69.2356 142.037 71.7068 141.328 71.681C139.313 71.6077 138.197 69.8849 137.084 70.5913C136.447 70.9952 136.328 66.3531 136.328 66.3531C136.328 66.3531 134.043 62.034 132.673 57.9738C132.264 56.8331 132.151 55.6076 132.344 54.4115C132.537 53.2153 133.029 52.0873 133.776 51.1325C133.776 51.1325 135.554 49.3337 138.812 50.2709Z" fill="#9747FF"/>
<path d="M135.491 36.4862C135.472 35.54 135.365 34.3295 134.701 33.3641C134.142 32.5519 133.012 31.9084 131.96 32.2301C131.971 32.0199 131.925 31.8104 131.824 31.6251C131.724 31.4398 131.575 31.2859 131.392 31.1805C130.988 30.9743 130.543 30.8623 130.09 30.853C129.022 30.7534 127.916 30.6499 126.834 30.8549C125.621 31.0847 124.628 31.7091 124.112 32.5692L124.1 32.596L123.995 33.1055C123.981 33.1738 123.952 33.2383 123.911 33.2945C123.869 33.3507 123.816 33.3973 123.755 33.4311C123.694 33.4654 123.626 33.4857 123.556 33.4907C123.486 33.4957 123.416 33.4851 123.351 33.4598C123.279 33.433 123.202 33.4253 123.126 33.4375C123.051 33.4497 122.98 33.4814 122.92 33.5294C122.861 33.5773 122.815 33.64 122.787 33.7111C122.759 33.7822 122.751 33.8594 122.762 33.9349L122.791 34.1379L122.486 34.0804C122.409 34.0656 122.33 34.0715 122.257 34.0975C122.183 34.1234 122.118 34.1685 122.068 34.228C122.017 34.2876 121.984 34.3594 121.971 34.4362C121.958 34.513 121.965 34.5918 121.993 34.6647L122.077 34.8964C122.014 34.8973 121.952 34.9107 121.895 34.9361C121.837 34.9614 121.785 34.9981 121.742 35.0439C121.68 35.1107 121.642 35.1953 121.631 35.2855C121.621 35.3757 121.639 35.4668 121.684 35.5458C122.026 36.1284 122.51 36.6148 123.092 36.9593C123.353 37.1167 123.635 37.2372 123.93 37.3175C123.991 37.3348 124.054 37.3501 124.119 37.3635C126.474 37.8703 128.901 37.943 131.281 37.578C131.141 38.0471 131.087 38.5377 131.122 39.0261C131.142 39.303 131.238 39.569 131.4 39.7952C131.561 40.0215 131.781 40.1993 132.036 40.3094C132.145 40.3461 132.257 40.373 132.37 40.3898C132.479 40.4074 132.586 40.4337 132.69 40.4684C132.844 40.5248 132.981 40.6209 133.086 40.747C133.191 40.8731 133.261 41.0247 133.289 41.1864C133.316 41.3481 133.301 41.5142 133.243 41.668C133.186 41.8218 133.089 41.9577 132.962 42.062C132.962 42.062 133.465 42.4777 133.528 42.4566C133.775 42.3476 133.982 42.1641 134.119 41.9318C135.075 40.5565 135.537 38.7253 135.491 36.4862Z" fill="#2F2E41"/>
<path d="M51.2896 3.36484C51.659 3.36484 51.9585 3.06565 51.9585 2.69658C51.9585 2.32751 51.659 2.02832 51.2896 2.02832C50.9201 2.02832 50.6206 2.32751 50.6206 2.69658C50.6206 3.06565 50.9201 3.36484 51.2896 3.36484Z" fill="white"/>
<path d="M90.4 64.5563H11.0539C10.988 64.5563 10.9248 64.5302 10.8783 64.4837C10.8317 64.4371 10.8055 64.374 10.8055 64.3083L10.9261 64.0322L90.4 64.0602C90.4658 64.0599 90.5291 64.0858 90.5758 64.1322C90.6226 64.1785 90.6489 64.2415 90.6492 64.3073C90.6494 64.3731 90.6235 64.4363 90.5771 64.483C90.5307 64.5297 90.4677 64.5561 90.4018 64.5563L90.4 64.5563Z" fill="#3F3D56"/>
<path d="M26.1467 62.821H25.6597V64.2073H26.1467V62.821Z" fill="#3F3D56"/>
<path d="M40.7278 54.8533H40.2407V64.2073H40.7278V54.8533Z" fill="#3F3D56"/>
<path d="M55.3386 43.6049H54.8516V64.2073H55.3386V43.6049Z" fill="#3F3D56"/>
<path d="M69.9496 33.9968H69.4625V64.2074H69.9496V33.9968Z" fill="#3F3D56"/>
<path d="M84.5605 56.0251H84.0735V64.2073H84.5605V56.0251Z" fill="#3F3D56"/>
<path d="M69.736 32.3129C70.5588 32.3129 71.2259 31.6465 71.2259 30.8245C71.2259 30.0025 70.5588 29.3361 69.736 29.3361C68.9131 29.3361 68.2461 30.0025 68.2461 30.8245C68.2461 31.6465 68.9131 32.3129 69.736 32.3129Z" fill="#6C63FF"/>
<path d="M55.3598 41.0437C56.1826 41.0437 56.8497 40.3773 56.8497 39.5553C56.8497 38.7333 56.1826 38.0669 55.3598 38.0669C54.5369 38.0669 53.8699 38.7333 53.8699 39.5553C53.8699 40.3773 54.5369 41.0437 55.3598 41.0437Z" fill="#6C63FF"/>
<path d="M84.347 54.7718C85.1698 54.7718 85.8369 54.1055 85.8369 53.2835C85.8369 52.4614 85.1698 51.7951 84.347 51.7951C83.5241 51.7951 82.8571 52.4614 82.8571 53.2835C82.8571 54.1055 83.5241 54.7718 84.347 54.7718Z" fill="#6C63FF"/>
<path d="M40.0951 116.176V98.6147C40.0951 98.3894 40.3573 98.2068 40.6808 98.2068H43.2945C43.618 98.2068 43.8803 98.3894 43.8803 98.6147V116.222L40.0951 116.176Z" fill="#3F3D56"/>
<path d="M48.728 116.235V102.817C48.728 102.6 48.9903 102.425 49.3137 102.425H51.9275C52.251 102.425 52.5132 102.6 52.5132 102.817V116.206L48.728 116.235Z" fill="#3F3D56"/>
<path d="M65.9938 116.204V109.379C65.971 109.298 66.2322 109.227 66.5795 109.221H69.1933C69.5406 109.227 69.8019 109.298 69.779 109.379V116.222L65.9938 116.204Z" fill="#3F3D56"/>
<path d="M31.4622 116.204V109.379C31.4622 109.292 31.7244 109.221 32.0479 109.221H34.6616C34.9851 109.221 35.2473 109.292 35.2473 109.379V116.222L31.4622 116.204Z" fill="#3F3D56"/>
<path d="M57.361 116.136V83.181C57.361 82.7583 57.6232 82.4157 57.9467 82.4157H60.5604C60.8839 82.4157 61.1461 82.7583 61.1461 83.181V116.222L57.361 116.136Z" fill="#6C63FF"/>
<path d="M81.0436 116.525H21.9284C21.8662 116.525 21.8066 116.501 21.7626 116.457C21.7186 116.413 21.6938 116.353 21.6938 116.291C21.6938 116.229 21.7186 116.169 21.7626 116.125C21.8066 116.081 21.8662 116.057 21.9284 116.057H81.0436C81.1058 116.057 81.1654 116.081 81.2094 116.125C81.2534 116.169 81.2781 116.229 81.2781 116.291C81.2781 116.353 81.2534 116.413 81.2094 116.457C81.1654 116.501 81.1058 116.525 81.0436 116.525Z" fill="#3F3D56"/>
<path d="M149.099 143.709H-31.7654C-31.8276 143.709 -31.8873 143.684 -31.9313 143.64C-31.9753 143.596 -32 143.537 -32 143.475C-32 143.413 -31.9753 143.353 -31.9313 143.309C-31.8873 143.265 -31.8276 143.24 -31.7654 143.24H149.099C149.161 143.24 149.221 143.265 149.265 143.309C149.309 143.353 149.333 143.413 149.333 143.475C149.333 143.537 149.309 143.596 149.265 143.64C149.221 143.684 149.161 143.709 149.099 143.709Z" fill="#CACACA"/>
<path d="M25.97 61.2799C26.7929 61.2799 27.4599 60.6135 27.4599 59.7915C27.4599 58.9695 26.7929 58.3031 25.97 58.3031C25.1472 58.3031 24.4801 58.9695 24.4801 59.7915C24.4801 60.6135 25.1472 61.2799 25.97 61.2799Z" fill="#6C63FF"/>
<path d="M40.5142 53.0779C41.337 53.0779 42.0041 52.4115 42.0041 51.5895C42.0041 50.7675 41.337 50.1012 40.5142 50.1012C39.6913 50.1012 39.0243 50.7675 39.0243 51.5895C39.0243 52.4115 39.6913 53.0779 40.5142 53.0779Z" fill="#6C63FF"/>
</g>
<defs>
<clipPath id="clip0_100_1882">
<rect width="144" height="144" fill="white"/>
</clipPath>
</defs>
</svg>
