<svg width="160" height="167" viewBox="0 0 160 167" fill="none" xmlns="http://www.w3.org/2000/svg">
<g clip-path="url(#clip0_220_589)">
<path d="M142.15 126.736L142.147 126.811L145.903 166.532H118.492L114.939 142.137L113.375 165.907L85.2263 165.594L88.2164 134.386L90.7592 119.921V119.918L91.1407 117.741H141.402L141.468 118.529L142.15 126.736Z" fill="#2F2E41"/>
<path d="M69.7104 149.763C72.6135 150.291 75.6406 147.022 76.4717 142.46C76.8355 140.463 76.7181 138.55 76.2277 136.985L76.6728 134.355L84.1428 98.9782C84.1428 98.9782 97.8984 71.4624 97.898 66.6855C97.8976 61.9086 93.9189 59.566 93.9189 59.566L88.5348 59.6164L71.6508 100.854L68.61 131.327L68.1181 135.507C67.1073 136.799 66.3226 138.548 65.9589 140.545C65.1278 145.107 66.8074 149.234 69.7104 149.763Z" fill="#FFB6B6"/>
<path d="M124.479 42.5201L119.474 30.9478L103.21 33.7627L102.116 47.3779L124.479 42.5201Z" fill="#FFB6B6"/>
<path opacity="0.1" d="M124.479 42.5201L119.474 30.9478L103.21 33.7627L102.116 47.3779L124.479 42.5201Z" fill="black"/>
<path d="M159.821 66.6033C159.821 66.6033 148.249 45.0224 146.059 42.833C145.085 41.8583 143.553 41.8448 142.152 42.1288L126.042 36.5776L120.582 33.5096L120.222 39.3465L102.296 42.5641C102.395 39.0045 102.898 37.6506 102.898 37.6506L96.3295 45.3351L83.506 51.5905L83.513 51.6468C82.572 51.9753 81.6798 52.5374 81.0039 53.4671C78.5017 56.9075 71.6208 98.8183 71.6208 98.8183L86.3209 101.946L88.3215 89.3917L89.7613 100.695L90.856 121.807C90.856 121.807 110.873 139.009 120.569 132.754C130.265 126.498 142.15 126.811 142.15 126.811L142.446 117.025C142.657 116.688 142.775 116.49 142.775 116.49L142.463 81.7774V72.5408C144.845 75.8603 147.721 78.7151 151.064 80.0523C162.011 84.431 159.821 66.6033 159.821 66.6033Z" fill="#E6E6E6"/>
<path d="M109.642 35.7988C117.906 35.7988 124.605 29.0999 124.605 20.8365C124.605 12.573 117.906 5.87415 109.642 5.87415C101.379 5.87415 94.6799 12.573 94.6799 20.8365C94.6799 29.0999 101.379 35.7988 109.642 35.7988Z" fill="#FFB6B6"/>
<path d="M120.376 25.065C120.376 25.065 121.677 20.5113 124.605 20.8365C127.532 21.1618 128.183 18.5597 127.532 17.2586C126.881 15.9575 125.58 9.45216 125.58 9.45216C125.58 9.45216 126.231 4.89841 122.328 4.24788C118.425 3.59735 117.123 2.94681 116.473 1.64574C115.822 0.344668 106.064 -0.956403 102.812 0.995205C99.559 2.94681 96.9569 6.69123 94.68 7.74643C92.4031 8.80163 90.4515 10.7532 91.7526 14.0059C93.0537 17.2586 94.9406 23.6201 94.9406 23.6201C94.9406 23.6201 98.2579 22.4629 98.9085 24.4145C99.559 26.3661 96.9569 23.7639 100.21 18.5597C103.462 13.3554 103.462 8.15109 108.666 10.1027C113.871 12.0543 119.726 11.4038 119.075 15.307C118.425 19.2102 120.376 25.065 120.376 25.065Z" fill="#2F2E41"/>
<path d="M119.461 143.68H5.82786C2.61431 143.68 0 141.066 0 137.852V77.4906C0 74.2773 2.61431 71.6627 5.82786 71.6627H119.461C122.675 71.6627 125.289 74.2773 125.289 77.4906V137.852C125.289 141.066 122.675 143.68 119.461 143.68Z" fill="white"/>
<path d="M119.461 143.68H5.82786C2.61431 143.68 0 141.066 0 137.852V77.4906C0 74.2773 2.61431 71.6627 5.82786 71.6627H119.461C122.675 71.6627 125.289 74.2773 125.289 77.4906V137.852C125.289 141.066 122.675 143.68 119.461 143.68ZM5.82786 72.6359C3.15105 72.6359 0.973209 74.8138 0.973209 77.4906V137.852C0.973209 140.529 3.15105 142.707 5.82786 142.707H119.461C122.138 142.707 124.316 140.529 124.316 137.852V77.4906C124.316 74.8138 122.138 72.6359 119.461 72.6359H5.82786Z" fill="#3F3D56"/>
<path d="M110.691 78.9617C111.497 78.9617 112.151 78.3082 112.151 77.5019C112.151 76.6957 111.497 76.0421 110.691 76.0421C109.885 76.0421 109.231 76.6957 109.231 77.5019C109.231 78.3082 109.885 78.9617 110.691 78.9617Z" fill="#3F3D56"/>
<path d="M114.584 78.9617C115.39 78.9617 116.044 78.3082 116.044 77.5019C116.044 76.6957 115.39 76.0421 114.584 76.0421C113.778 76.0421 113.124 76.6957 113.124 77.5019C113.124 78.3082 113.778 78.9617 114.584 78.9617Z" fill="#3F3D56"/>
<path d="M118.477 78.9617C119.283 78.9617 119.936 78.3082 119.936 77.5019C119.936 76.6957 119.283 76.0421 118.477 76.0421C117.67 76.0421 117.017 76.6957 117.017 77.5019C117.017 78.3082 117.67 78.9617 118.477 78.9617Z" fill="#3F3D56"/>
<path d="M8.27239 101.102C7.8699 101.102 7.54248 101.43 7.54248 101.832C7.54248 102.028 7.61828 102.21 7.75584 102.344C7.8946 102.486 8.07637 102.562 8.27239 102.562H117.504C117.906 102.562 118.233 102.235 118.233 101.832C118.233 101.636 118.158 101.454 118.02 101.32C117.881 101.178 117.7 101.102 117.504 101.102H8.27239Z" fill="#E6E6E6"/>
<path d="M103.878 100.859V102.805H8.27229C8.00466 102.805 7.76135 102.698 7.58618 102.518C7.40611 102.343 7.29907 102.1 7.29907 101.832C7.29907 101.297 7.73703 100.859 8.27228 100.859H103.878Z" fill="#6C63FF"/>
<path d="M116.287 97.2095H106.555C105.482 97.2095 104.608 96.3366 104.608 95.2631C104.608 94.1896 105.482 93.3167 106.555 93.3167H116.287C117.36 93.3167 118.233 94.1896 118.233 95.2631C118.233 96.3366 117.36 97.2095 116.287 97.2095Z" fill="#E6E6E6"/>
<path d="M52.5415 86.9907H9.00209C7.92884 86.9907 7.05566 86.1178 7.05566 85.0443C7.05566 83.9708 7.92884 83.0979 9.00209 83.0979H52.5415C53.6147 83.0979 54.4879 83.9708 54.4879 85.0443C54.4879 86.1178 53.6147 86.9907 52.5415 86.9907Z" fill="#E6E6E6"/>
<path d="M8.27239 123C7.8699 123 7.54248 123.327 7.54248 123.73C7.54248 123.926 7.61828 124.107 7.75584 124.241C7.8946 124.383 8.07637 124.459 8.27239 124.459H117.504C117.906 124.459 118.233 124.132 118.233 123.73C118.233 123.533 118.158 123.352 118.02 123.218C117.881 123.076 117.7 123 117.504 123H8.27239Z" fill="#E6E6E6"/>
<path d="M66.4099 122.756V124.703H8.27229C8.00466 124.703 7.76135 124.596 7.58618 124.416C7.40611 124.24 7.29907 123.997 7.29907 123.729C7.29907 123.194 7.73703 122.756 8.27228 122.756H66.4099Z" fill="#6C63FF"/>
<path d="M116.287 119.107H106.555C105.482 119.107 104.608 118.234 104.608 117.16C104.608 116.087 105.482 115.214 106.555 115.214H116.287C117.36 115.214 118.233 116.087 118.233 117.16C118.233 118.234 117.36 119.107 116.287 119.107Z" fill="#E6E6E6"/>
<path d="M133.324 36.9505C141.741 36.9505 148.565 30.2711 148.565 22.0316C148.565 13.7921 141.741 7.11267 133.324 7.11267C124.908 7.11267 118.084 13.7921 118.084 22.0316C118.084 30.2711 124.908 36.9505 133.324 36.9505Z" fill="#6C63FF"/>
<path d="M138.497 14.5064C136.468 18.2008 134.439 21.8953 132.41 25.5898C131.117 23.305 129.831 21.0162 128.535 18.7333C128.087 17.9448 126.869 18.654 127.318 19.4444C128.821 22.0909 130.308 24.7461 131.811 27.3926C132.068 27.8451 132.773 27.8556 133.027 27.3926C135.256 23.3342 137.485 19.2759 139.714 15.2175C140.15 14.4223 138.934 13.7105 138.497 14.5064Z" fill="white"/>
<path d="M154.363 61.3561L139.179 54.0926C139.179 54.0926 138.569 49.231 135.721 47.497C135.237 46.3421 134.68 45.0733 134.174 44.068C132.923 41.5819 134.8 36.8904 133.236 36.8904C131.672 36.8904 129.36 41.8244 129.483 43.1457C129.577 44.16 130.415 45.9308 130.588 47.481C128.681 48.2002 127.143 49.4329 126.131 50.4144C125.256 51.2638 124.931 52.5311 125.273 53.7018C126.264 57.0944 128.742 64.1011 132.298 64.1011C136.989 64.1011 138.24 63.1628 138.24 63.1628C138.24 63.1628 147.936 75.3607 155.13 76.299C162.323 77.2373 154.363 61.3561 154.363 61.3561Z" fill="#FFB6B6"/>
</g>
<defs>
<clipPath id="clip0_220_589">
<rect width="160" height="166.532" fill="white"/>
</clipPath>
</defs>
</svg>
