<svg width="40" height="45" viewBox="0 0 40 45" fill="none" xmlns="http://www.w3.org/2000/svg">
<path d="M26.6667 0H13.3333V4.28571H26.6667V0ZM17.7778 27.8571H22.2222V15H17.7778V27.8571ZM35.6222 13.6929L38.7778 10.65C37.8222 9.55714 36.7778 8.52857 35.6444 7.62857L32.4889 10.6714C29.0444 8.01429 24.7111 6.42857 20 6.42857C8.95556 6.42857 0 15.0643 0 25.7143C0 36.3643 8.93333 45 20 45C31.0667 45 40 36.3643 40 25.7143C40 21.1714 38.3556 16.9929 35.6222 13.6929ZM20 40.7143C11.4 40.7143 4.44444 34.0071 4.44444 25.7143C4.44444 17.4214 11.4 10.7143 20 10.7143C28.6 10.7143 35.5556 17.4214 35.5556 25.7143C35.5556 34.0071 28.6 40.7143 20 40.7143Z" fill="white"/>
</svg>
